<svg xmlns="http://www.w3.org/2000/svg" xmlns:xlink="http://www.w3.org/1999/xlink" zoomAndPan="magnify" viewBox="0 0 375 374.999991" height="500" preserveAspectRatio="xMidYMid meet" version="1.0"><defs><g/><clipPath id="f6bf4364cf"><path d="M 187.5 375 C 137.441406 375 90.304688 355.515625 54.929688 320.070312 C 19.484375 284.695312 0 237.558594 0 187.5 C 0 137.441406 19.484375 90.304688 54.929688 54.929688 C 90.304688 19.484375 137.441406 0 187.5 0 C 237.558594 0 284.695312 19.484375 320.070312 54.929688 C 355.515625 90.378906 375 137.441406 375 187.5 C 375 237.558594 355.515625 284.695312 320.070312 320.070312 C 284.695312 355.515625 237.558594 375 187.5 375 Z M 187.5 11.242188 C 140.4375 11.242188 96.148438 29.601562 62.875 62.875 C 29.601562 96.148438 11.242188 140.4375 11.242188 187.5 C 11.242188 234.5625 29.601562 278.851562 62.875 312.125 C 96.148438 345.398438 140.4375 363.757812 187.5 363.757812 C 234.5625 363.757812 278.851562 345.398438 312.125 312.125 C 345.398438 278.851562 363.757812 234.5625 363.757812 187.5 C 363.757812 140.4375 345.398438 96.148438 312.125 62.875 C 278.851562 29.601562 234.5625 11.242188 187.5 11.242188 Z M 187.5 11.242188 " clip-rule="nonzero"/></clipPath><clipPath id="36772fe4e3"><path d="M 31.433594 125.1875 L 343.433594 125.1875 L 343.433594 258.6875 L 31.433594 258.6875 Z M 31.433594 125.1875 " clip-rule="nonzero"/></clipPath><clipPath id="d2bb406e99"><path d="M 55.183594 55.183594 L 319.933594 55.183594 L 319.933594 319.933594 L 55.183594 319.933594 Z M 55.183594 55.183594 " clip-rule="nonzero"/></clipPath></defs><g clip-path="url(#f6bf4364cf)"><rect x="-37.5" width="450" fill="#112241" y="-37.499999" height="449.999989" fill-opacity="1"/></g><g clip-path="url(#36772fe4e3)"><path fill="#112241" d="M 333.90625 227.964844 C 329.949219 241.4375 323.90625 254.214844 316.410156 265.988281 C 310.21875 275.566406 303.179688 284.570312 295.273438 292.761719 C 294.25 293.878906 293.105469 294.878906 292.019531 295.9375 C 290.917969 296.972656 289.84375 298.042969 288.714844 299.054688 L 285.289062 302.039062 L 283.574219 303.53125 L 281.796875 304.941406 L 278.246094 307.78125 C 277.042969 308.699219 275.800781 309.570312 274.582031 310.46875 C 272.175781 312.3125 269.613281 313.933594 267.105469 315.640625 C 266.742188 315.882812 266.363281 316.136719 265.964844 316.402344 C 265.558594 316.648438 265.132812 316.90625 264.691406 317.171875 C 263.804688 317.699219 262.851562 318.269531 261.839844 318.875 C 259.835938 320.136719 257.464844 321.320312 254.902344 322.679688 C 254.261719 323.011719 253.613281 323.375 252.933594 323.699219 C 252.25 324.019531 251.550781 324.34375 250.839844 324.671875 C 249.417969 325.332031 247.941406 326.011719 246.421875 326.714844 C 243.304688 327.933594 240.050781 329.398438 236.507812 330.53125 C 222.503906 335.609375 205.03125 338.746094 187.496094 338.820312 C 169.960938 338.746094 152.488281 335.609375 138.488281 330.53125 C 134.941406 329.398438 131.691406 327.933594 128.570312 326.714844 C 127.050781 326.011719 125.578125 325.332031 124.15625 324.671875 C 123.441406 324.34375 122.746094 324.019531 122.058594 323.703125 C 121.378906 323.375 120.734375 323.011719 120.089844 322.679688 C 117.53125 321.320312 115.160156 320.136719 113.15625 318.875 C 112.144531 318.269531 111.191406 317.699219 110.304688 317.171875 C 109.863281 316.90625 109.4375 316.652344 109.027344 316.402344 C 108.632812 316.136719 108.253906 315.882812 107.890625 315.640625 C 98.363281 309.398438 89.414062 302.304688 81.28125 294.339844 C 72.699219 285.769531 65.199219 276.171875 58.585938 265.988281 C 51.085938 254.21875 45.046875 241.4375 41.085938 227.964844 C 36.96875 214.535156 35.0625 200.445312 34.941406 186.351562 C 35.0625 172.257812 36.96875 158.167969 41.085938 144.738281 C 45.046875 131.265625 51.085938 118.484375 58.585938 106.714844 C 64.773438 97.136719 71.8125 88.132812 79.722656 79.941406 C 80.746094 78.824219 81.886719 77.820312 82.972656 76.765625 C 84.078125 75.730469 85.148438 74.65625 86.277344 73.644531 L 89.707031 70.664062 L 91.417969 69.171875 L 93.199219 67.757812 L 96.75 64.921875 C 97.953125 64.003906 99.191406 63.132812 100.410156 62.234375 C 102.820312 60.390625 105.378906 58.769531 107.890625 57.0625 C 108.25 56.820312 108.632812 56.566406 109.027344 56.296875 C 109.4375 56.054688 109.859375 55.796875 110.304688 55.53125 C 111.1875 55 112.140625 54.433594 113.15625 53.828125 C 115.160156 52.566406 117.53125 51.382812 120.089844 50.019531 C 120.734375 49.691406 121.378906 49.328125 122.058594 49 C 122.746094 48.683594 123.441406 48.359375 124.152344 48.027344 C 125.574219 47.371094 127.050781 46.691406 128.570312 45.988281 C 131.6875 44.769531 134.941406 43.304688 138.488281 42.167969 C 152.488281 37.09375 169.960938 33.953125 187.496094 33.882812 C 205.03125 33.953125 222.503906 37.09375 236.503906 42.167969 C 240.050781 43.304688 243.300781 44.769531 246.421875 45.988281 C 247.941406 46.691406 249.417969 47.371094 250.839844 48.027344 C 251.550781 48.359375 252.25 48.683594 252.933594 49 C 253.613281 49.324219 254.257812 49.691406 254.902344 50.019531 C 257.460938 51.382812 259.835938 52.566406 261.835938 53.824219 C 262.851562 54.433594 263.804688 55 264.6875 55.53125 C 265.128906 55.796875 265.554688 56.050781 265.964844 56.296875 C 266.359375 56.5625 266.742188 56.820312 267.101562 57.0625 C 276.628906 63.304688 285.578125 70.394531 293.710938 78.359375 C 302.292969 86.933594 309.792969 96.53125 316.40625 106.710938 C 323.90625 118.484375 329.949219 131.265625 333.90625 144.738281 C 338.027344 158.167969 339.929688 172.257812 340.050781 186.351562 C 339.929688 200.445312 338.027344 214.535156 333.90625 227.964844 Z M 343.558594 186.246094 L 343.558594 186.234375 C 343.429688 171.84375 341.496094 157.445312 337.300781 143.71875 C 333.269531 129.945312 327.09375 116.875 319.394531 104.867188 L 315.695312 99.304688 C 315.695312 99.304688 314.625 97.808594 313.019531 95.566406 C 311.476562 93.273438 309.113281 90.453125 306.855469 87.550781 C 304.421875 84.796875 302.089844 81.953125 300.128906 80.011719 C 298.222656 78.019531 296.949219 76.695312 296.949219 76.695312 C 296.949219 76.695312 296.628906 76.367188 296.050781 75.8125 C 295.472656 75.253906 294.644531 74.453125 293.65625 73.496094 C 291.722656 71.527344 288.914062 69.15625 286.164062 66.722656 C 284.75 65.546875 283.296875 64.421875 281.953125 63.34375 C 281.28125 62.804688 280.628906 62.289062 280.011719 61.796875 C 279.371094 61.335938 278.765625 60.898438 278.207031 60.496094 C 275.972656 58.882812 274.480469 57.808594 274.480469 57.808594 C 274.480469 57.808594 274.15625 57.542969 273.632812 57.203125 C 273.109375 56.855469 272.417969 56.394531 271.726562 55.929688 C 270.339844 55 268.953125 54.070312 268.953125 54.070312 C 268.582031 53.824219 268.195312 53.558594 267.792969 53.289062 C 267.375 53.035156 266.9375 52.769531 266.488281 52.5 C 265.582031 51.953125 264.609375 51.371094 263.574219 50.746094 C 261.523438 49.457031 259.101562 48.238281 256.480469 46.84375 C 255.824219 46.5 255.164062 46.128906 254.464844 45.796875 C 253.765625 45.46875 253.050781 45.136719 252.328125 44.796875 C 250.871094 44.125 249.363281 43.425781 247.804688 42.703125 C 244.613281 41.449219 241.289062 39.953125 237.660156 38.785156 C 223.328125 33.582031 205.4375 30.355469 187.496094 30.285156 C 169.554688 30.355469 151.664062 33.582031 137.332031 38.785156 C 133.707031 39.953125 130.375 41.449219 127.1875 42.703125 C 125.628906 43.425781 124.121094 44.125 122.667969 44.796875 C 121.941406 45.136719 121.226562 45.46875 120.523438 45.796875 C 119.828125 46.128906 119.167969 46.5 118.511719 46.84375 C 115.890625 48.238281 113.46875 49.457031 111.417969 50.746094 C 110.382812 51.371094 109.410156 51.953125 108.503906 52.5 C 108.054688 52.769531 107.617188 53.035156 107.203125 53.289062 C 106.796875 53.5625 106.410156 53.824219 106.039062 54.070312 C 106.039062 54.070312 104.652344 55 103.265625 55.929688 C 102.574219 56.394531 101.878906 56.855469 101.363281 57.203125 C 100.835938 57.542969 100.511719 57.808594 100.511719 57.808594 C 100.511719 57.808594 99.023438 58.882812 96.789062 60.496094 C 96.226562 60.898438 95.621094 61.335938 94.984375 61.796875 C 94.363281 62.289062 93.714844 62.804688 93.039062 63.34375 C 91.695312 64.421875 90.242188 65.546875 88.832031 66.722656 C 86.078125 69.15625 83.273438 71.527344 81.339844 73.496094 C 80.347656 74.453125 79.523438 75.253906 78.945312 75.8125 C 78.363281 76.367188 78.042969 76.695312 78.042969 76.695312 C 78.042969 76.695312 76.773438 78.019531 74.867188 80.011719 C 72.902344 81.953125 70.570312 84.796875 68.140625 87.550781 C 65.882812 90.453125 63.515625 93.277344 61.972656 95.566406 C 60.367188 97.808594 59.296875 99.304688 59.296875 99.304688 L 55.597656 104.867188 C 47.898438 116.875 41.722656 129.945312 37.691406 143.71875 C 33.5 157.449219 31.5625 171.847656 31.4375 186.238281 L 31.433594 186.246094 L 31.433594 186.453125 L 31.4375 186.46875 C 31.5625 200.855469 33.5 215.257812 37.691406 228.984375 C 41.722656 242.757812 47.898438 255.828125 55.597656 267.835938 L 59.296875 273.394531 C 59.296875 273.394531 60.367188 274.894531 61.972656 277.136719 C 63.515625 279.425781 65.882812 282.25 68.140625 285.152344 C 70.570312 287.90625 72.902344 290.75 74.867188 292.691406 C 76.773438 294.679688 78.042969 296.007812 78.042969 296.007812 C 78.042969 296.007812 78.363281 296.335938 78.945312 296.890625 C 79.523438 297.449219 80.347656 298.25 81.339844 299.207031 C 83.273438 301.175781 86.078125 303.546875 88.832031 305.980469 C 90.242188 307.15625 91.695312 308.28125 93.039062 309.359375 C 93.714844 309.894531 94.363281 310.414062 94.984375 310.90625 C 95.621094 311.367188 96.226562 311.804688 96.789062 312.207031 C 99.023438 313.820312 100.511719 314.894531 100.511719 314.894531 C 100.511719 314.894531 100.835938 315.160156 101.363281 315.496094 C 101.882812 315.847656 102.574219 316.308594 103.265625 316.773438 C 104.652344 317.703125 106.039062 318.628906 106.039062 318.628906 C 106.410156 318.878906 106.796875 319.140625 107.203125 319.414062 C 107.621094 319.667969 108.054688 319.929688 108.507812 320.203125 C 109.410156 320.75 110.386719 321.332031 111.421875 321.957031 C 113.46875 323.246094 115.894531 324.464844 118.511719 325.859375 C 119.167969 326.199219 119.832031 326.574219 120.527344 326.90625 C 121.226562 327.234375 121.941406 327.566406 122.667969 327.90625 C 124.121094 328.578125 125.632812 329.277344 127.1875 330 C 130.378906 331.253906 133.707031 332.746094 137.335938 333.917969 C 151.664062 339.121094 169.554688 342.34375 187.496094 342.414062 C 205.4375 342.34375 223.328125 339.121094 237.660156 333.914062 C 241.289062 332.746094 244.617188 331.25 247.808594 329.996094 C 249.363281 329.277344 250.871094 328.578125 252.328125 327.902344 C 253.054688 327.566406 253.769531 327.230469 254.46875 326.90625 C 255.164062 326.574219 255.824219 326.199219 256.484375 325.859375 C 259.101562 324.464844 261.527344 323.246094 263.574219 321.957031 C 264.609375 321.332031 265.582031 320.746094 266.488281 320.203125 C 266.9375 319.929688 267.375 319.667969 267.792969 319.414062 C 268.195312 319.140625 268.585938 318.878906 268.953125 318.628906 C 268.953125 318.628906 270.339844 317.703125 271.726562 316.773438 C 272.421875 316.308594 273.113281 315.847656 273.632812 315.496094 C 274.15625 315.160156 274.480469 314.894531 274.480469 314.894531 C 274.480469 314.894531 275.972656 313.820312 278.207031 312.207031 C 278.765625 311.804688 279.371094 311.367188 280.011719 310.90625 C 280.628906 310.414062 281.28125 309.894531 281.953125 309.359375 C 283.296875 308.28125 284.75 307.15625 286.164062 305.980469 C 288.914062 303.546875 291.722656 301.175781 293.65625 299.207031 C 294.644531 298.25 295.472656 297.449219 296.050781 296.890625 C 296.628906 296.335938 296.949219 296.007812 296.949219 296.007812 C 296.949219 296.007812 298.222656 294.679688 300.128906 292.691406 C 302.089844 290.75 304.421875 287.90625 306.855469 285.152344 C 309.113281 282.25 311.476562 279.425781 313.019531 277.136719 C 314.625 274.890625 315.695312 273.394531 315.695312 273.394531 L 319.394531 267.835938 C 327.09375 255.828125 333.269531 242.753906 337.300781 228.984375 C 341.496094 215.253906 343.429688 200.855469 343.558594 186.464844 L 343.558594 186.453125 L 343.5625 186.351562 L 343.558594 186.246094 " fill-opacity="1" fill-rule="nonzero"/></g><path fill="#f2dea2" d="M 187.585938 60.886719 C 121.9375 60.886719 67.730469 110.605469 61.507812 175.179688 C 65.566406 171.902344 69.671875 168.242188 73.949219 164.417969 C 78.28125 160.542969 82.761719 156.542969 87.335938 152.851562 C 92.113281 148.949219 116.4375 147.523438 122.199219 153.066406 C 129.441406 160 136.304688 166.3125 142.605469 171.847656 C 142.691406 171.910156 142.777344 171.964844 142.863281 172.039062 C 166.203125 192.570312 178.785156 200.085938 182.636719 202.160156 C 191.535156 196.867188 204.492188 196.789062 211.898438 204.855469 C 216.671875 203.828125 221.640625 204.484375 226.191406 206.585938 C 225.632812 203.070312 225.867188 199.441406 226.976562 196.085938 C 228.453125 191.613281 232.148438 185.414062 241.351562 181.269531 C 252.101562 176.382812 264.417969 177.761719 273.808594 183.835938 C 267.34375 173.367188 258.511719 168.707031 252.867188 166.714844 C 243.339844 163.296875 234.535156 164.109375 230.03125 166.433594 C 229.316406 166.804688 228.707031 167.207031 228.234375 167.628906 C 229.078125 168.632812 229.753906 169.992188 230.164062 171.621094 C 231.386719 176.421875 229.960938 182.480469 224.015625 185.164062 C 219.617188 187.144531 214.957031 186.535156 211.222656 183.492188 C 206.035156 179.257812 203.84375 171.398438 205.625 163.457031 C 208.308594 151.449219 216.8125 145.265625 223.480469 142.195312 C 234.148438 137.285156 247.621094 136.949219 256.738281 141.25 C 269.792969 137.8125 284.777344 140.339844 297.066406 148.074219 C 302.917969 151.765625 307.800781 156.421875 311.578125 161.808594 C 299.710938 103.804688 248.757812 60.886719 187.585938 60.886719 Z M 250.6875 201.0625 C 249.980469 201.160156 249.308594 201.363281 248.714844 201.632812 C 249.046875 201.828125 249.375 202.046875 249.691406 202.292969 C 252.75 204.664062 254.664062 209.519531 252.050781 214.996094 C 250.429688 218.425781 246.957031 220.804688 242.765625 221.355469 C 241.933594 221.460938 241.105469 221.460938 240.285156 221.417969 C 241.226562 223.683594 241.863281 226.046875 242.164062 228.457031 C 246.96875 228.652344 252.269531 226.132812 256.128906 221.625 C 260.253906 216.796875 261.648438 211.082031 259.878906 206.289062 C 257.734375 202.488281 254.304688 200.519531 250.6875 201.0625 " fill-opacity="1" fill-rule="nonzero"/><path fill="#ffffff" d="M 314.140625 183.617188 C 309.417969 176.898438 299.71875 175.453125 294.4375 176.671875 C 292.933594 177.015625 291.644531 177.488281 290.484375 178.109375 C 286.3125 180.253906 283.851562 184.328125 284.148438 188.519531 C 284.394531 191.941406 286.359375 194.519531 289.539062 195.613281 C 291.382812 196.234375 293.289062 195.152344 294.164062 193.789062 C 294.945312 192.601562 294.847656 191.472656 293.882812 190.441406 C 293.332031 189.847656 293.058594 189.042969 293.132812 188.238281 C 293.203125 187.425781 293.621094 186.691406 294.273438 186.207031 C 297.214844 184.023438 301.253906 184.214844 304.828125 186.6875 C 308.675781 189.355469 311.828125 194.425781 313.4375 201.535156 C 313.945312 196.9375 314.226562 192.289062 314.226562 187.585938 C 314.226562 186.246094 314.191406 184.945312 314.140625 183.617188 Z M 214.832031 179.066406 C 216.265625 180.242188 218.617188 181.351562 221.664062 179.964844 C 223.492188 179.132812 224.554688 177.707031 224.804688 175.714844 C 225.066406 173.640625 224.351562 171.917969 223.910156 171.359375 C 223.210938 171.25 222.574219 170.898438 222.117188 170.335938 C 221.527344 169.621094 221.328125 168.652344 221.578125 167.757812 C 222.304688 165.171875 224.324219 162.957031 227.417969 161.367188 C 234.019531 157.957031 244.269531 157.839844 253.773438 161 C 263.179688 157.816406 282.417969 160.222656 290.316406 171.945312 C 291.214844 171.621094 292.164062 171.335938 293.175781 171.113281 C 297.753906 170.058594 305.316406 170.363281 311.699219 173.933594 C 308.332031 165.398438 302.253906 158.082031 294.03125 152.902344 C 282.742188 145.804688 268.976562 143.601562 257.238281 147.027344 C 256.519531 147.230469 255.753906 147.160156 255.105469 146.804688 C 247.566406 142.800781 235.277344 143.042969 225.867188 147.378906 C 220.367188 149.910156 213.363281 154.96875 211.195312 164.703125 C 209.695312 171.359375 211.941406 176.710938 214.832031 179.066406 Z M 243.703125 186.46875 C 237.902344 189.078125 233.996094 193.015625 232.390625 197.878906 C 230.957031 202.226562 231.429688 207.203125 233.65625 211.179688 C 233.960938 211.671875 234.308594 212.269531 234.722656 212.726562 C 236.636719 214.996094 239.273438 216.074219 242.03125 215.691406 C 244.253906 215.398438 246.121094 214.195312 246.898438 212.546875 C 248.238281 209.742188 247.355469 207.703125 246.191406 206.800781 C 245.582031 206.324219 245.042969 206.28125 244.917969 206.375 C 243.980469 207.167969 242.652344 207.25 241.601562 206.621094 C 240.558594 205.988281 240.035156 204.757812 240.300781 203.558594 C 241.253906 199.320312 245.007812 196.121094 249.871094 195.417969 C 254.617188 194.730469 261.007812 196.539062 264.925781 203.597656 C 264.941406 203.625 264.945312 203.652344 264.964844 203.679688 C 264.964844 203.6875 264.964844 203.6875 264.964844 203.6875 C 265.246094 204.175781 265.519531 204.664062 265.730469 205.148438 C 269.023438 212.324219 268.984375 221.167969 265.609375 229.347656 C 261.761719 238.671875 254.015625 246.148438 243.664062 250.578125 C 244.035156 253.417969 243.929688 256.234375 243.382812 258.949219 C 249.523438 256.652344 256.914062 256.808594 263.476562 259.644531 C 291.480469 238.308594 284.714844 207.921875 280.035156 198.820312 C 273.378906 185.925781 257.078125 180.398438 243.703125 186.46875 Z M 262.742188 265.578125 C 262.660156 265.546875 262.578125 265.523438 262.496094 265.480469 C 254.90625 261.578125 245.230469 262.488281 240.007812 267.601562 L 239.414062 268.238281 C 239.128906 268.722656 238.753906 269.230469 238.3125 269.757812 C 237.296875 271.441406 236.789062 273.4375 236.925781 275.34375 C 237.09375 278.828125 239.054688 281.40625 241.597656 281.542969 C 244.300781 281.558594 245.167969 280.058594 245.472656 279.371094 C 245.871094 278.472656 245.929688 277.230469 245.183594 276.480469 C 244.421875 275.71875 244.15625 274.585938 244.492188 273.558594 C 244.835938 272.535156 245.722656 271.792969 246.792969 271.636719 C 248.851562 271.335938 250.824219 271.515625 252.507812 272.132812 C 252.507812 272.132812 252.515625 272.132812 252.515625 272.132812 C 252.546875 272.144531 252.582031 272.160156 252.613281 272.171875 C 257.097656 273.671875 260.144531 277.988281 260.65625 283.726562 C 260.871094 286.078125 260.621094 288.820312 259.75 291.617188 C 264.785156 288.128906 269.5625 284.265625 274.074219 280.035156 C 271.660156 271.777344 266.671875 267.628906 262.742188 265.578125 Z M 237.675781 249.417969 C 237.136719 247.082031 236.230469 244.820312 234.988281 242.722656 C 234.507812 241.902344 234.464844 240.90625 234.863281 240.046875 C 236.1875 237.253906 236.804688 234.175781 236.648438 231.140625 C 236.5 225.898438 234.253906 220.636719 230.464844 216.644531 C 225.265625 211.066406 218.09375 208.828125 211.699219 210.789062 C 210.554688 211.167969 209.296875 210.738281 208.566406 209.769531 C 203.136719 202.457031 191.476562 202.851562 184.429688 207.777344 C 180.175781 210.71875 177.820312 215.035156 177.777344 219.960938 C 177.753906 222.910156 178.75 225.265625 180.507812 226.410156 C 181.828125 227.257812 183.410156 227.339844 184.984375 226.628906 C 185.691406 226.316406 186.328125 225.375 186.589844 224.277344 C 186.851562 223.199219 186.636719 222.511719 186.535156 222.386719 C 185.179688 221.898438 184.484375 220.527344 184.804688 219.117188 C 185.980469 214.039062 190.441406 210.757812 195.71875 211.109375 C 200.125 211.289062 205.140625 213.886719 207.265625 219.132812 C 212.226562 218.015625 217.625 219.324219 221.996094 222.839844 C 230.695312 229.859375 232.398438 243.484375 225.886719 253.84375 C 222.855469 258.59375 218.507812 262.257812 212.9375 264.742188 C 208.4375 266.730469 203.746094 267.601562 199.027344 267.601562 C 198.035156 267.601562 197.046875 267.558594 196.054688 267.484375 C 203.167969 270.464844 211.015625 272.683594 219.351562 273.320312 L 219.820312 273.320312 C 225.015625 273.320312 230.210938 270.722656 233.71875 266.363281 C 234.105469 265.785156 234.464844 265.269531 234.863281 264.8125 C 237.902344 260.320312 238.902344 254.855469 237.675781 249.417969 Z M 150.230469 264.75 C 149.179688 266.976562 147.835938 268.929688 146.222656 270.570312 C 147.457031 271.632812 148.921875 272.914062 150.589844 274.386719 C 158.882812 281.683594 171.417969 292.71875 184.375 301.289062 L 184.949219 301.683594 C 193.578125 307.4375 201.035156 312.410156 208.425781 312.503906 C 213.65625 311.644531 218.8125 310.433594 223.863281 308.921875 C 214.207031 307.34375 203.523438 302.582031 191.375 294.53125 C 176.648438 284.777344 160.234375 272.441406 150.230469 264.75 Z M 160.351562 243.085938 C 160.371094 243.105469 160.390625 243.121094 160.402344 243.132812 C 160.40625 243.136719 160.414062 243.140625 160.414062 243.140625 C 161.273438 244.003906 162.035156 244.769531 162.847656 245.527344 C 162.847656 245.527344 162.851562 245.527344 162.851562 245.527344 C 162.863281 245.539062 162.875 245.546875 162.882812 245.554688 C 162.882812 245.558594 162.890625 245.558594 162.890625 245.5625 C 162.902344 245.570312 162.90625 245.582031 162.917969 245.585938 C 175.578125 256.945312 194.75 266.542969 210.621094 259.53125 C 215.136719 257.511719 218.652344 254.574219 221.058594 250.800781 C 226.050781 242.855469 224.898438 232.515625 218.417969 227.277344 C 214.09375 223.804688 209.433594 224.011719 206.539062 225.363281 C 203.308594 226.933594 201.617188 229.9375 202.050781 233.378906 C 202.40625 236.230469 203.859375 238.03125 205.957031 238.199219 C 207.363281 238.386719 209.171875 237.542969 209.78125 235.488281 C 210.140625 234.269531 211.261719 233.574219 212.546875 233.449219 C 213.824219 233.46875 214.9375 234.324219 215.269531 235.558594 C 216.429688 239.84375 214.8125 244.425781 210.941406 247.816406 C 206.097656 252.074219 197.144531 254.679688 188.085938 250.914062 C 175.828125 245.789062 167.335938 235.585938 159.847656 226.589844 C 159.070312 225.652344 158.3125 224.75 157.566406 223.863281 C 159.160156 229.6875 159.074219 235.195312 157.222656 239.847656 C 158.257812 240.96875 159.292969 242.066406 160.351562 243.085938 Z M 123.753906 211.617188 C 135.15625 214.5625 142.832031 221.765625 144.800781 231.390625 C 145.113281 232.929688 144.121094 234.445312 142.578125 234.761719 C 142.484375 234.777344 142.386719 234.777344 142.292969 234.789062 C 142.195312 234.796875 142.101562 234.8125 142.003906 234.8125 C 141.992188 234.8125 141.988281 234.808594 141.976562 234.808594 C 141.960938 234.808594 141.945312 234.808594 141.929688 234.804688 C 141.894531 234.808594 141.875 234.8125 141.839844 234.8125 C 140.460938 234.941406 139.898438 236.867188 139.84375 237.101562 C 139.496094 238.761719 139.828125 241.929688 143.273438 243.285156 C 145.097656 243.976562 146.714844 243.453125 147.746094 242.902344 C 149.152344 242.140625 150.414062 240.808594 151.296875 239.164062 C 151.316406 239.121094 151.324219 239.070312 151.34375 239.027344 C 152.765625 236.3125 155.324219 228.703125 148.324219 216.625 C 147.496094 215.199219 146.570312 213.890625 145.566406 212.742188 C 145.558594 212.738281 145.554688 212.726562 145.546875 212.722656 C 145.539062 212.710938 145.527344 212.703125 145.519531 212.695312 C 133.808594 198.707031 108.464844 193.527344 86.582031 200.675781 C 78.140625 203.433594 70.421875 207.804688 63.585938 213.625 C 64.644531 218.703125 66.019531 223.75 67.730469 228.695312 C 84.824219 211.480469 108.3125 207.605469 123.753906 211.617188 Z M 146.785156 249.152344 C 146.207031 249.242188 145.628906 249.304688 145.054688 249.304688 C 143.753906 249.304688 142.46875 249.074219 141.230469 248.605469 C 135.109375 246.207031 133.335938 240.359375 134.257812 235.9375 C 134.613281 234.242188 135.335938 232.828125 136.304688 231.71875 C 127.898438 226.867188 118.371094 225.257812 108.742188 226.890625 C 115.535156 227.96875 121.820312 230.804688 126.863281 235.28125 C 134.347656 241.9375 137.589844 251.214844 135.542969 260.101562 C 135.246094 261.410156 134.015625 262.050781 132.722656 262.3125 C 131.378906 262.296875 130.230469 261.34375 129.964844 260.027344 C 129.71875 258.816406 128.585938 258.332031 127.691406 258.285156 C 127.089844 258.199219 125.070312 258.339844 124.183594 261.082031 C 123.464844 263.277344 124.113281 265.09375 124.777344 266.238281 C 126.476562 269.339844 129.988281 271 133.820312 270.492188 C 136.234375 270.214844 138.359375 269.453125 140.175781 268.222656 C 143.015625 266.300781 145.035156 263.332031 146.164062 259.410156 C 147.007812 256.339844 147.207031 252.832031 146.785156 249.152344 Z M 72.589844 177.53125 C 74.34375 177.835938 75.800781 178.621094 76.917969 179.796875 C 83.390625 174.167969 89.464844 171.871094 93.9375 173.488281 C 94.964844 173.859375 95.859375 174.441406 96.59375 175.1875 C 99.882812 171.109375 103.316406 169.101562 106.996094 169.066406 L 107.082031 169.066406 C 111.371094 169.066406 115.441406 171.804688 119.46875 177.410156 C 121.03125 176.054688 122.90625 175.277344 125.011719 175.160156 C 128.273438 174.996094 131.648438 176.382812 134.765625 178.402344 C 134.789062 177.738281 134.851562 177.089844 135.027344 176.480469 C 135.246094 175.707031 135.648438 174.804688 136.359375 173.9375 C 130.6875 168.882812 124.625 163.289062 118.246094 157.1875 C 115.039062 154.097656 94.03125 154.746094 90.925781 157.277344 C 86.457031 160.890625 82.035156 164.84375 77.75 168.671875 C 74.136719 171.902344 70.640625 175.023438 67.164062 177.917969 C 69.046875 177.421875 70.917969 177.230469 72.589844 177.53125 Z M 130.375 253.046875 C 129.90625 248.113281 127.390625 243.386719 123.070312 239.542969 C 116.464844 233.671875 104.316406 229.230469 89.953125 234.277344 C 84.695312 237.601562 79.878906 241.820312 75.601562 246.820312 C 76.699219 248.890625 77.761719 250.773438 78.8125 252.519531 C 85.355469 245.628906 94.910156 242.832031 102.152344 243.191406 C 109.226562 243.550781 114.847656 246.632812 117.585938 251.648438 C 117.996094 252.394531 118.042969 253.289062 117.730469 254.078125 C 117.40625 254.871094 116.75 255.476562 115.9375 255.730469 C 112.683594 256.761719 112.046875 259.113281 111.949219 260.414062 C 111.785156 262.660156 112.957031 264.847656 114.789062 265.789062 C 114.832031 265.8125 114.875 265.835938 114.921875 265.863281 C 115.964844 266.335938 117.21875 266.410156 118.589844 266.078125 C 117.996094 263.886719 118.027344 261.550781 118.757812 259.3125 C 120.167969 254.984375 123.890625 252.339844 128.015625 252.585938 C 128.839844 252.636719 129.632812 252.792969 130.375 253.046875 " fill-opacity="1" fill-rule="nonzero"/><path fill="#27498c" d="M 301.578125 191.375 C 301.273438 191.167969 300.796875 190.867188 300.238281 190.65625 C 300.667969 192.722656 300.246094 194.910156 298.945312 196.902344 C 298.019531 198.335938 296.761719 199.46875 295.339844 200.25 C 299.042969 204.105469 301.671875 209.789062 302.945312 216.859375 C 304.242188 223.992188 304.0625 232.625 302.078125 241.738281 C 303.347656 239.050781 304.535156 236.304688 305.617188 233.507812 C 305.632812 233.433594 305.644531 233.355469 305.667969 233.285156 C 313.101562 207.539062 306.238281 194.613281 301.578125 191.375 Z M 263.414062 165.464844 C 268.859375 168.800781 274.828125 174.039062 279.496094 182.167969 C 280.628906 179.246094 282.621094 176.632812 285.277344 174.664062 C 280.535156 168.078125 270.933594 165.589844 263.414062 165.464844 Z M 250.691406 281.667969 C 249.109375 285.292969 245.527344 287.378906 241.3125 287.242188 C 236.691406 286.984375 232.996094 283.566406 231.710938 278.738281 C 229.136719 279.039062 226.628906 279.1875 224.15625 279.1875 C 222.664062 279.1875 221.183594 279.132812 219.703125 279.027344 L 219.1875 279.027344 C 219.183594 279.027344 219.171875 279.023438 219.164062 279.023438 C 219.101562 279.023438 219.035156 279.023438 218.976562 279.023438 C 218.964844 279.023438 218.964844 279.015625 218.957031 279.015625 C 218.550781 279.011719 218.109375 278.988281 217.722656 278.914062 C 217.679688 278.910156 217.648438 278.886719 217.601562 278.875 C 210.292969 278.179688 203.359375 276.40625 196.953125 273.988281 C 209.125 282.886719 222.027344 290.257812 233.398438 291.890625 C 241.964844 293.140625 248.019531 291.160156 250.386719 286.300781 C 251.359375 284.3125 251.519531 282.113281 251.171875 280.265625 C 251.046875 280.738281 250.898438 281.207031 250.691406 281.667969 Z M 206.722656 243.914062 C 206.316406 243.9375 205.902344 243.921875 205.476562 243.882812 C 201.800781 243.578125 197.226562 240.824219 196.390625 234.078125 C 195.75 228.945312 197.90625 224.253906 202.097656 221.371094 C 200.984375 218.472656 198.046875 216.914062 195.488281 216.808594 C 194.617188 216.734375 192.273438 216.863281 191.007812 218.832031 C 191.859375 219.910156 192.359375 221.34375 192.414062 222.988281 C 192.523438 226.230469 190.800781 230.308594 187.300781 231.84375 C 183.976562 233.34375 180.351562 233.109375 177.394531 231.195312 C 173.976562 228.96875 172.027344 224.847656 172.074219 219.90625 C 172.117188 214.554688 174.136719 209.75 177.789062 205.984375 C 172.191406 202.707031 160.300781 194.828125 140.664062 177.691406 C 140.574219 177.832031 140.535156 177.957031 140.511719 178.039062 C 140.136719 179.351562 141.074219 182.644531 144.9375 187.597656 C 145.339844 188.035156 145.871094 188.679688 146.402344 189.320312 C 147.40625 190.539062 147.242188 192.359375 146.027344 193.355469 C 145.492188 193.800781 144.847656 194.019531 144.203125 194.019531 C 143.394531 194.019531 142.585938 193.671875 142.03125 192.988281 L 141.992188 192.945312 C 141.515625 192.363281 141.042969 191.785156 140.5625 191.253906 C 140.558594 191.242188 140.550781 191.238281 140.546875 191.226562 C 140.539062 191.226562 140.535156 191.222656 140.535156 191.214844 C 134.808594 184.613281 129.011719 180.617188 125.339844 180.851562 C 124.234375 180.917969 123.363281 181.414062 122.605469 182.363281 C 123.335938 183.640625 124.042969 184.957031 124.71875 186.339844 C 125.410156 187.753906 124.828125 189.457031 123.40625 190.148438 C 122.007812 190.835938 120.28125 190.253906 119.589844 188.832031 C 118.5625 186.726562 117.46875 184.75 116.324219 182.957031 C 112.960938 177.597656 109.765625 174.773438 107.078125 174.773438 L 107.042969 174.773438 C 104.46875 174.792969 101.523438 177.429688 98.527344 182.386719 C 97.890625 183.449219 96.664062 183.988281 95.441406 183.691406 C 94.238281 183.40625 93.347656 182.386719 93.242188 181.15625 C 93.078125 179.246094 92.25 178.945312 91.976562 178.84375 C 89.816406 178.054688 84.601562 180.03125 78.300781 186.300781 C 75.800781 188.746094 73.257812 191.75 70.734375 195.242188 C 70.171875 196.015625 69.300781 196.425781 68.421875 196.425781 C 67.839844 196.425781 67.253906 196.253906 66.75 195.886719 C 65.46875 194.964844 65.183594 193.179688 66.105469 191.902344 C 68.339844 188.820312 70.585938 186.097656 72.824219 183.753906 C 72.492188 183.394531 72.082031 183.230469 71.605469 183.148438 C 68.546875 182.632812 63.046875 185.484375 60.890625 187.765625 C 60.902344 194.394531 61.421875 200.910156 62.410156 207.222656 C 68.980469 202.089844 76.257812 198.15625 84.117188 195.5 C 87.347656 192.117188 89.8125 187.8125 89.839844 187.769531 C 90.613281 186.398438 92.351562 185.925781 93.726562 186.699219 C 95.097656 187.480469 95.574219 189.21875 94.796875 190.589844 C 94.75 190.683594 94.175781 191.667969 93.246094 193.078125 C 114.929688 188.835938 137.4375 194.753906 149.390625 208.453125 C 154.46875 211.222656 159.003906 216.65625 164.234375 222.9375 C 171.304688 231.433594 179.316406 241.070312 190.28125 245.652344 C 196.777344 248.351562 203.109375 246.757812 206.722656 243.914062 Z M 155.839844 200.679688 C 155.28125 201.410156 154.4375 201.792969 153.585938 201.792969 C 152.972656 201.792969 152.363281 201.59375 151.839844 201.191406 C 150.925781 200.484375 150.425781 199.980469 150.425781 199.980469 C 149.324219 198.863281 149.332031 197.054688 150.445312 195.945312 C 151.558594 194.847656 153.347656 194.847656 154.449219 195.933594 C 154.507812 195.984375 154.8125 196.28125 155.328125 196.679688 C 156.574219 197.644531 156.804688 199.441406 155.839844 200.679688 Z M 112.253906 270.902344 C 108.820312 268.953125 105.503906 267.460938 102.292969 266.421875 C 111.523438 272.742188 120.183594 282.742188 127.75 291.488281 C 132.34375 296.800781 136.679688 301.800781 140.398438 305.136719 C 148.140625 308.242188 156.101562 310.550781 164.230469 312.0625 C 156.675781 307.714844 148.769531 301.460938 140.023438 293 C 129.105469 282.460938 120.277344 275.4375 112.253906 270.902344 Z M 106.253906 260.003906 C 106.496094 256.695312 108.09375 253.898438 110.691406 252.035156 C 108.613281 250.191406 105.542969 249.074219 101.867188 248.894531 C 95.542969 248.5625 87.226562 251.160156 81.988281 257.535156 C 82.507812 258.324219 83.03125 259.097656 83.566406 259.851562 C 90.824219 258.144531 98.320312 258.769531 106.265625 261.769531 C 106.222656 261.1875 106.21875 260.597656 106.253906 260.003906 " fill-opacity="1" fill-rule="nonzero"/><path fill="#0477bf" d="M 297.339844 217.871094 C 295.84375 209.609375 292.191406 203.59375 287.316406 201.363281 C 287.269531 201.34375 287.226562 201.328125 287.183594 201.308594 C 291.597656 214.761719 293.914062 242.226562 268.816406 262.710938 C 273.105469 265.855469 276.414062 270.242188 278.511719 275.542969 C 295.351562 256.53125 300.132812 233.328125 297.339844 217.871094 Z M 242.667969 234.175781 C 242.53125 234.175781 242.398438 234.15625 242.261719 234.15625 C 242.054688 236.519531 241.519531 238.871094 240.621094 241.113281 C 241.273438 242.347656 241.824219 243.625 242.292969 244.9375 C 250.816406 241.0625 257.175781 234.839844 260.335938 227.171875 C 260.734375 226.199219 261.066406 225.21875 261.355469 224.234375 C 261.066406 224.601562 260.773438 224.972656 260.460938 225.332031 C 255.667969 230.9375 249 234.175781 242.667969 234.175781 Z M 238.097656 297.953125 C 236.414062 297.960938 234.582031 297.828125 232.582031 297.539062 C 216.171875 295.183594 195.601562 282.386719 167.855469 257.277344 C 167.761719 257.207031 167.703125 257.152344 167.625 257.085938 C 164.769531 254.882812 161.949219 252.484375 159.003906 249.738281 C 158.992188 249.726562 158.980469 249.71875 158.972656 249.707031 C 158.144531 248.9375 157.371094 248.167969 156.597656 247.394531 C 156.488281 247.304688 156.390625 247.203125 156.292969 247.09375 C 155.574219 246.398438 154.863281 245.667969 154.160156 244.925781 C 153.554688 245.601562 152.917969 246.238281 152.222656 246.777344 C 152.894531 251.050781 152.863281 255.214844 152.113281 259.003906 C 161.828125 266.5 179.132812 279.574219 194.53125 289.773438 C 214.734375 303.171875 230.214844 306.835938 243.234375 301.332031 C 243.265625 301.316406 243.453125 301.230469 243.617188 301.160156 C 244.128906 300.902344 244.644531 300.644531 245.15625 300.359375 C 245.277344 300.285156 245.40625 300.21875 245.539062 300.148438 C 245.554688 300.140625 245.5625 300.136719 245.574219 300.125 C 249.746094 297.898438 252.28125 294.785156 253.664062 291.644531 C 251.234375 294.601562 246.609375 297.953125 238.097656 297.953125 Z M 181.210938 306.042969 C 167.945312 297.257812 154.726562 285.621094 146.816406 278.667969 C 144.675781 276.78125 142.886719 275.207031 141.507812 274.046875 C 139.382812 275.152344 137.039062 275.867188 134.511719 276.160156 C 133.820312 276.246094 133.136719 276.289062 132.464844 276.289062 C 131.457031 276.289062 130.476562 276.164062 129.519531 275.980469 C 133.980469 279.589844 138.761719 283.855469 143.984375 288.902344 C 162.09375 306.40625 176.101562 313.96875 190.816406 314.167969 L 190.835938 314.167969 C 191.820312 314.15625 192.734375 314.109375 193.582031 314.058594 L 193.582031 314.070312 C 193.785156 314.066406 193.96875 314.058594 194.132812 314.058594 C 190.050781 311.9375 185.972656 309.222656 181.789062 306.429688 Z M 135.625 224.96875 C 132.675781 221.332031 128.152344 218.644531 122.328125 217.140625 C 107.464844 213.304688 84.960938 218.175781 69.960938 234.6875 C 70.832031 236.886719 71.796875 239.101562 72.84375 241.328125 C 77.152344 236.605469 81.925781 232.570312 87.101562 229.324219 C 87.132812 229.300781 87.171875 229.289062 87.203125 229.269531 C 87.210938 229.269531 87.210938 229.261719 87.214844 229.261719 C 87.238281 229.25 87.253906 229.242188 87.273438 229.230469 C 87.285156 229.222656 87.292969 229.214844 87.300781 229.207031 C 87.3125 229.195312 87.328125 229.195312 87.339844 229.191406 C 102.996094 219.441406 120.753906 218.070312 135.625 224.96875 Z M 88.28125 266.15625 C 98.710938 279.320312 111.550781 290.21875 126.101562 298.292969 C 125.222656 297.285156 124.335938 296.265625 123.4375 295.226562 C 113.003906 283.164062 100.414062 268.582031 88.28125 266.15625 " fill-opacity="1" fill-rule="nonzero"/><g clip-path="url(#d2bb406e99)"><path fill="#112140" d="M 319.933594 187.585938 C 319.933594 186.109375 319.890625 184.667969 319.835938 183.199219 C 319.855469 183.066406 319.878906 182.9375 319.878906 182.796875 C 319.878906 182.625 319.847656 182.453125 319.8125 182.285156 C 316.992188 111.007812 258.917969 55.183594 187.585938 55.183594 C 116.789062 55.183594 58.703125 110.523438 55.363281 181.117188 C 55.238281 182.953125 55.183594 184.839844 55.183594 186.671875 L 55.183594 187.585938 C 55.183594 196.316406 56.011719 204.886719 57.625 213.054688 C 59.0625 220.515625 61.203125 227.933594 63.980469 235.082031 C 65.5625 239.257812 67.46875 243.519531 69.644531 247.761719 C 69.652344 247.773438 69.65625 247.785156 69.660156 247.796875 C 71.925781 252.171875 73.976562 255.726562 76.085938 258.910156 C 77.324219 260.917969 78.691406 262.925781 80.074219 264.777344 C 94.699219 285.113281 114.644531 300.816406 137.738281 310.191406 L 137.742188 310.183594 C 137.765625 310.191406 137.792969 310.207031 137.8125 310.21875 L 137.796875 310.253906 C 153.652344 316.671875 170.40625 319.933594 187.585938 319.933594 C 188.726562 319.933594 189.800781 319.933594 190.78125 319.871094 C 191.824219 319.871094 192.929688 319.863281 193.6875 319.765625 C 193.730469 319.765625 193.773438 319.765625 193.816406 319.757812 C 194.371094 319.757812 194.964844 319.746094 195.53125 319.691406 L 195.53125 319.699219 C 200.484375 319.382812 204.925781 318.882812 209.097656 318.179688 C 209.125 318.175781 209.148438 318.167969 209.183594 318.164062 C 209.199219 318.160156 209.214844 318.160156 209.230469 318.152344 C 221.832031 316.09375 234.023438 312.199219 245.476562 306.570312 C 245.640625 306.503906 245.972656 306.378906 246.125 306.285156 C 246.128906 306.28125 246.128906 306.28125 246.136719 306.28125 L 246.136719 306.277344 L 247.546875 305.605469 C 247.773438 305.492188 248.140625 305.3125 248.535156 305.011719 C 259.699219 299.277344 270.03125 291.882812 279.242188 283.023438 L 279.230469 283.019531 C 279.457031 282.855469 279.679688 282.667969 279.734375 282.527344 C 293.566406 269.15625 304.089844 253.292969 311.011719 235.398438 L 311.007812 235.390625 C 311.078125 235.210938 311.136719 235.015625 311.175781 234.8125 C 316.976562 219.867188 319.933594 203.984375 319.933594 187.585938 Z M 249.691406 202.292969 C 249.375 202.046875 249.046875 201.828125 248.714844 201.632812 C 249.308594 201.363281 249.980469 201.160156 250.6875 201.0625 C 254.304688 200.519531 257.734375 202.488281 259.878906 206.289062 C 261.648438 211.082031 260.253906 216.796875 256.128906 221.625 C 252.269531 226.132812 246.96875 228.652344 242.164062 228.457031 C 241.863281 226.046875 241.226562 223.683594 240.285156 221.417969 C 241.105469 221.460938 241.933594 221.460938 242.765625 221.355469 C 246.957031 220.804688 250.429688 218.425781 252.050781 214.996094 C 254.664062 209.519531 252.75 204.664062 249.691406 202.292969 Z M 242.261719 234.15625 C 242.398438 234.15625 242.53125 234.175781 242.667969 234.175781 C 249 234.175781 255.667969 230.9375 260.460938 225.332031 C 260.773438 224.972656 261.066406 224.601562 261.355469 224.234375 C 261.066406 225.21875 260.734375 226.199219 260.335938 227.171875 C 257.175781 234.839844 250.816406 241.0625 242.292969 244.9375 C 241.824219 243.625 241.273438 242.347656 240.621094 241.113281 C 241.519531 238.871094 242.054688 236.519531 242.261719 234.15625 Z M 243.664062 250.578125 C 254.015625 246.148438 261.761719 238.671875 265.609375 229.347656 C 268.984375 221.167969 269.023438 212.324219 265.730469 205.148438 C 265.519531 204.664062 265.246094 204.175781 264.964844 203.6875 C 264.964844 203.6875 264.964844 203.6875 264.964844 203.679688 C 264.945312 203.652344 264.941406 203.625 264.925781 203.597656 C 261.007812 196.539062 254.617188 194.730469 249.871094 195.417969 C 245.007812 196.121094 241.253906 199.320312 240.300781 203.558594 C 240.035156 204.757812 240.558594 205.988281 241.601562 206.621094 C 242.652344 207.25 243.980469 207.167969 244.917969 206.375 C 245.042969 206.28125 245.582031 206.324219 246.191406 206.800781 C 247.355469 207.703125 248.238281 209.742188 246.898438 212.546875 C 246.121094 214.195312 244.253906 215.398438 242.03125 215.691406 C 239.273438 216.074219 236.636719 214.996094 234.722656 212.726562 C 234.308594 212.269531 233.960938 211.671875 233.65625 211.179688 C 231.429688 207.203125 230.957031 202.226562 232.390625 197.878906 C 233.996094 193.015625 237.902344 189.078125 243.703125 186.46875 C 257.078125 180.398438 273.378906 185.925781 280.035156 198.820312 C 284.714844 207.921875 291.480469 238.308594 263.476562 259.644531 C 256.914062 256.808594 249.523438 256.652344 243.382812 258.949219 C 243.929688 256.234375 244.035156 253.417969 243.664062 250.578125 Z M 234.863281 264.8125 C 234.464844 265.269531 234.105469 265.785156 233.71875 266.363281 C 230.210938 270.722656 225.015625 273.320312 219.820312 273.320312 L 219.351562 273.320312 C 211.015625 272.683594 203.167969 270.464844 196.054688 267.484375 C 197.046875 267.558594 198.035156 267.601562 199.027344 267.601562 C 203.746094 267.601562 208.4375 266.730469 212.9375 264.742188 C 218.507812 262.257812 222.855469 258.59375 225.886719 253.84375 C 232.398438 243.484375 230.695312 229.859375 221.996094 222.839844 C 217.625 219.324219 212.226562 218.015625 207.265625 219.132812 C 205.140625 213.886719 200.125 211.289062 195.71875 211.109375 C 190.441406 210.757812 185.980469 214.039062 184.804688 219.117188 C 184.484375 220.527344 185.179688 221.898438 186.535156 222.386719 C 186.636719 222.511719 186.851562 223.199219 186.589844 224.277344 C 186.328125 225.375 185.691406 226.316406 184.984375 226.628906 C 183.410156 227.339844 181.828125 227.257812 180.507812 226.410156 C 178.75 225.265625 177.753906 222.910156 177.777344 219.960938 C 177.820312 215.035156 180.175781 210.71875 184.429688 207.777344 C 191.476562 202.851562 203.136719 202.457031 208.566406 209.769531 C 209.296875 210.738281 210.554688 211.167969 211.699219 210.789062 C 218.09375 208.828125 225.265625 211.066406 230.464844 216.644531 C 234.253906 220.636719 236.5 225.898438 236.648438 231.140625 C 236.804688 234.175781 236.1875 237.253906 234.863281 240.046875 C 234.464844 240.90625 234.507812 241.902344 234.988281 242.722656 C 236.230469 244.820312 237.136719 247.082031 237.675781 249.417969 C 238.902344 254.855469 237.902344 260.320312 234.863281 264.8125 Z M 241.3125 287.242188 C 245.527344 287.378906 249.109375 285.292969 250.691406 281.667969 C 250.898438 281.207031 251.046875 280.738281 251.171875 280.265625 C 251.519531 282.113281 251.359375 284.3125 250.386719 286.300781 C 248.019531 291.160156 241.964844 293.140625 233.398438 291.890625 C 222.027344 290.257812 209.125 282.886719 196.953125 273.988281 C 203.359375 276.40625 210.292969 278.179688 217.601562 278.875 C 217.648438 278.886719 217.679688 278.910156 217.722656 278.914062 C 218.109375 278.988281 218.550781 279.011719 218.957031 279.015625 C 218.964844 279.015625 218.964844 279.023438 218.976562 279.023438 C 219.035156 279.023438 219.101562 279.023438 219.164062 279.023438 C 219.171875 279.023438 219.183594 279.027344 219.1875 279.027344 L 219.703125 279.027344 C 221.183594 279.132812 222.664062 279.1875 224.15625 279.1875 C 226.628906 279.1875 229.136719 279.039062 231.710938 278.738281 C 232.996094 283.566406 236.691406 286.984375 241.3125 287.242188 Z M 157.566406 223.863281 C 158.3125 224.75 159.070312 225.652344 159.847656 226.589844 C 167.335938 235.585938 175.828125 245.789062 188.085938 250.914062 C 197.144531 254.679688 206.097656 252.074219 210.941406 247.816406 C 214.8125 244.425781 216.429688 239.84375 215.269531 235.558594 C 214.9375 234.324219 213.824219 233.46875 212.546875 233.449219 C 211.261719 233.574219 210.140625 234.269531 209.78125 235.488281 C 209.171875 237.542969 207.363281 238.386719 205.957031 238.199219 C 203.859375 238.03125 202.40625 236.230469 202.050781 233.378906 C 201.617188 229.9375 203.308594 226.933594 206.539062 225.363281 C 209.433594 224.011719 214.09375 223.804688 218.417969 227.277344 C 224.898438 232.515625 226.050781 242.855469 221.058594 250.800781 C 218.652344 254.574219 215.136719 257.511719 210.621094 259.53125 C 194.75 266.542969 175.578125 256.945312 162.917969 245.585938 C 162.90625 245.582031 162.902344 245.570312 162.890625 245.5625 C 162.890625 245.558594 162.882812 245.558594 162.882812 245.554688 C 162.875 245.546875 162.863281 245.539062 162.851562 245.527344 C 162.851562 245.527344 162.847656 245.527344 162.847656 245.527344 C 162.035156 244.769531 161.273438 244.003906 160.414062 243.140625 C 160.414062 243.140625 160.40625 243.136719 160.402344 243.132812 C 160.390625 243.121094 160.371094 243.105469 160.351562 243.085938 C 159.292969 242.066406 158.257812 240.96875 157.222656 239.847656 C 159.074219 235.195312 159.160156 229.6875 157.566406 223.863281 Z M 279.496094 182.167969 C 274.828125 174.039062 268.859375 168.800781 263.414062 165.464844 C 270.933594 165.589844 280.535156 168.078125 285.277344 174.664062 C 282.621094 176.632812 280.628906 179.246094 279.496094 182.167969 Z M 253.773438 161 C 244.269531 157.839844 234.019531 157.957031 227.417969 161.367188 C 224.324219 162.957031 222.304688 165.171875 221.578125 167.757812 C 221.328125 168.652344 221.527344 169.621094 222.117188 170.335938 C 222.574219 170.898438 223.210938 171.25 223.910156 171.359375 C 224.351562 171.917969 225.066406 173.640625 224.804688 175.714844 C 224.554688 177.707031 223.492188 179.132812 221.664062 179.964844 C 218.617188 181.351562 216.265625 180.242188 214.832031 179.066406 C 211.941406 176.710938 209.695312 171.359375 211.195312 164.703125 C 213.363281 154.96875 220.367188 149.910156 225.867188 147.378906 C 235.277344 143.042969 247.566406 142.800781 255.105469 146.804688 C 255.753906 147.160156 256.519531 147.230469 257.238281 147.027344 C 268.976562 143.601562 282.742188 145.804688 294.03125 152.902344 C 302.253906 158.082031 308.332031 165.398438 311.699219 173.933594 C 305.316406 170.363281 297.753906 170.058594 293.175781 171.113281 C 292.164062 171.335938 291.214844 171.621094 290.316406 171.945312 C 282.417969 160.222656 263.179688 157.816406 253.773438 161 Z M 187.585938 60.886719 C 248.757812 60.886719 299.710938 103.804688 311.578125 161.808594 C 307.800781 156.421875 302.917969 151.765625 297.066406 148.074219 C 284.777344 140.339844 269.792969 137.8125 256.738281 141.25 C 247.621094 136.949219 234.148438 137.285156 223.480469 142.195312 C 216.8125 145.265625 208.308594 151.449219 205.625 163.457031 C 203.84375 171.398438 206.035156 179.257812 211.222656 183.492188 C 214.957031 186.535156 219.617188 187.144531 224.015625 185.164062 C 229.960938 182.480469 231.386719 176.421875 230.164062 171.621094 C 229.753906 169.992188 229.078125 168.632812 228.234375 167.628906 C 228.707031 167.207031 229.316406 166.804688 230.03125 166.433594 C 234.535156 164.109375 243.339844 163.296875 252.867188 166.714844 C 258.511719 168.707031 267.34375 173.367188 273.808594 183.835938 C 264.417969 177.761719 252.101562 176.382812 241.351562 181.269531 C 232.148438 185.414062 228.453125 191.613281 226.976562 196.085938 C 225.867188 199.441406 225.632812 203.070312 226.191406 206.585938 C 221.640625 204.484375 216.671875 203.828125 211.898438 204.855469 C 204.492188 196.789062 191.535156 196.867188 182.636719 202.160156 C 178.785156 200.085938 166.203125 192.570312 142.863281 172.039062 C 142.777344 171.964844 142.691406 171.910156 142.605469 171.847656 C 136.304688 166.3125 129.441406 160 122.199219 153.066406 C 116.4375 147.523438 92.113281 148.949219 87.335938 152.851562 C 82.761719 156.542969 78.28125 160.542969 73.949219 164.417969 C 69.671875 168.242188 65.566406 171.902344 61.507812 175.179688 C 67.730469 110.605469 121.9375 60.886719 187.585938 60.886719 Z M 136.359375 173.9375 C 135.648438 174.804688 135.246094 175.707031 135.027344 176.480469 C 134.851562 177.089844 134.789062 177.738281 134.765625 178.402344 C 131.648438 176.382812 128.273438 174.996094 125.011719 175.160156 C 122.90625 175.277344 121.03125 176.054688 119.46875 177.410156 C 115.441406 171.804688 111.371094 169.066406 107.082031 169.066406 L 106.996094 169.066406 C 103.316406 169.101562 99.882812 171.109375 96.59375 175.1875 C 95.859375 174.441406 94.964844 173.859375 93.9375 173.488281 C 89.464844 171.871094 83.390625 174.167969 76.917969 179.796875 C 75.800781 178.621094 74.34375 177.835938 72.589844 177.53125 C 70.917969 177.230469 69.046875 177.421875 67.164062 177.917969 C 70.640625 175.023438 74.136719 171.902344 77.75 168.671875 C 82.035156 164.84375 86.457031 160.890625 90.925781 157.277344 C 94.03125 154.746094 115.039062 154.097656 118.246094 157.1875 C 124.625 163.289062 130.6875 168.882812 136.359375 173.9375 Z M 60.890625 187.765625 C 63.046875 185.484375 68.546875 182.632812 71.605469 183.148438 C 72.082031 183.230469 72.492188 183.394531 72.824219 183.753906 C 70.585938 186.097656 68.339844 188.820312 66.105469 191.902344 C 65.183594 193.179688 65.46875 194.964844 66.75 195.886719 C 67.253906 196.253906 67.839844 196.425781 68.421875 196.425781 C 69.300781 196.425781 70.171875 196.015625 70.734375 195.242188 C 73.257812 191.75 75.800781 188.746094 78.300781 186.300781 C 84.601562 180.03125 89.816406 178.054688 91.976562 178.84375 C 92.25 178.945312 93.078125 179.246094 93.242188 181.15625 C 93.347656 182.386719 94.238281 183.40625 95.441406 183.691406 C 96.664062 183.988281 97.890625 183.449219 98.527344 182.386719 C 101.523438 177.429688 104.46875 174.792969 107.042969 174.773438 L 107.078125 174.773438 C 109.765625 174.773438 112.960938 177.597656 116.324219 182.957031 C 117.46875 184.75 118.5625 186.726562 119.589844 188.832031 C 120.28125 190.253906 122.007812 190.835938 123.40625 190.148438 C 124.828125 189.457031 125.410156 187.753906 124.71875 186.339844 C 124.042969 184.957031 123.335938 183.640625 122.605469 182.363281 C 123.363281 181.414062 124.234375 180.917969 125.339844 180.851562 C 129.011719 180.617188 134.808594 184.613281 140.535156 191.214844 C 140.535156 191.222656 140.539062 191.226562 140.546875 191.226562 C 140.550781 191.238281 140.558594 191.242188 140.5625 191.253906 C 141.042969 191.785156 141.515625 192.363281 141.992188 192.945312 L 142.03125 192.988281 C 142.585938 193.671875 143.394531 194.019531 144.203125 194.019531 C 144.847656 194.019531 145.492188 193.800781 146.027344 193.355469 C 147.242188 192.359375 147.40625 190.539062 146.402344 189.320312 C 145.871094 188.679688 145.339844 188.035156 144.9375 187.597656 C 141.074219 182.644531 140.136719 179.351562 140.511719 178.039062 C 140.535156 177.957031 140.574219 177.832031 140.664062 177.691406 C 160.300781 194.828125 172.191406 202.707031 177.789062 205.984375 C 174.136719 209.75 172.117188 214.554688 172.074219 219.90625 C 172.027344 224.847656 173.976562 228.96875 177.394531 231.195312 C 180.351562 233.109375 183.976562 233.34375 187.300781 231.84375 C 190.800781 230.308594 192.523438 226.230469 192.414062 222.988281 C 192.359375 221.34375 191.859375 219.910156 191.007812 218.832031 C 192.273438 216.863281 194.617188 216.734375 195.488281 216.808594 C 198.046875 216.914062 200.984375 218.472656 202.097656 221.371094 C 197.90625 224.253906 195.75 228.945312 196.390625 234.078125 C 197.226562 240.824219 201.800781 243.578125 205.476562 243.882812 C 205.902344 243.921875 206.316406 243.9375 206.722656 243.914062 C 203.109375 246.757812 196.777344 248.351562 190.28125 245.652344 C 179.316406 241.070312 171.304688 231.433594 164.234375 222.9375 C 159.003906 216.65625 154.46875 211.222656 149.390625 208.453125 C 137.4375 194.753906 114.929688 188.835938 93.246094 193.078125 C 94.175781 191.667969 94.75 190.683594 94.796875 190.589844 C 95.574219 189.21875 95.097656 187.480469 93.726562 186.699219 C 92.351562 185.925781 90.613281 186.398438 89.839844 187.769531 C 89.8125 187.8125 87.347656 192.117188 84.117188 195.5 C 76.257812 198.15625 68.980469 202.089844 62.410156 207.222656 C 61.421875 200.910156 60.902344 194.394531 60.890625 187.765625 Z M 67.730469 228.695312 C 66.019531 223.75 64.644531 218.703125 63.585938 213.625 C 70.421875 207.804688 78.140625 203.433594 86.582031 200.675781 C 108.464844 193.527344 133.808594 198.707031 145.519531 212.695312 C 145.527344 212.703125 145.539062 212.710938 145.546875 212.722656 C 145.554688 212.726562 145.558594 212.738281 145.566406 212.742188 C 146.570312 213.890625 147.496094 215.199219 148.324219 216.625 C 155.324219 228.703125 152.765625 236.3125 151.34375 239.027344 C 151.324219 239.070312 151.316406 239.121094 151.296875 239.164062 C 150.414062 240.808594 149.152344 242.140625 147.746094 242.902344 C 146.714844 243.453125 145.097656 243.976562 143.273438 243.285156 C 139.828125 241.929688 139.496094 238.761719 139.84375 237.101562 C 139.898438 236.867188 140.460938 234.941406 141.839844 234.8125 C 141.875 234.8125 141.894531 234.808594 141.929688 234.804688 C 141.945312 234.808594 141.960938 234.808594 141.976562 234.808594 C 141.988281 234.808594 141.992188 234.8125 142.003906 234.8125 C 142.101562 234.8125 142.195312 234.796875 142.292969 234.789062 C 142.386719 234.777344 142.484375 234.777344 142.578125 234.761719 C 144.121094 234.445312 145.113281 232.929688 144.800781 231.390625 C 142.832031 221.765625 135.15625 214.5625 123.753906 211.617188 C 108.3125 207.605469 84.824219 211.480469 67.730469 228.695312 Z M 126.863281 235.28125 C 121.820312 230.804688 115.535156 227.96875 108.742188 226.890625 C 118.371094 225.257812 127.898438 226.867188 136.304688 231.71875 C 135.335938 232.828125 134.613281 234.242188 134.257812 235.9375 C 133.335938 240.359375 135.109375 246.207031 141.230469 248.605469 C 142.46875 249.074219 143.753906 249.304688 145.054688 249.304688 C 145.628906 249.304688 146.207031 249.242188 146.785156 249.152344 C 147.207031 252.832031 147.007812 256.339844 146.164062 259.410156 C 145.035156 263.332031 143.015625 266.300781 140.175781 268.222656 C 138.359375 269.453125 136.234375 270.214844 133.820312 270.492188 C 129.988281 271 126.476562 269.339844 124.777344 266.238281 C 124.113281 265.09375 123.464844 263.277344 124.183594 261.082031 C 125.070312 258.339844 127.089844 258.199219 127.691406 258.285156 C 128.585938 258.332031 129.71875 258.816406 129.964844 260.027344 C 130.230469 261.34375 131.378906 262.296875 132.722656 262.3125 C 134.015625 262.050781 135.246094 261.410156 135.542969 260.101562 C 137.589844 251.214844 134.347656 241.9375 126.863281 235.28125 Z M 69.960938 234.6875 C 84.960938 218.175781 107.464844 213.304688 122.328125 217.140625 C 128.152344 218.644531 132.675781 221.332031 135.625 224.96875 C 120.753906 218.070312 102.996094 219.441406 87.339844 229.191406 C 87.328125 229.195312 87.3125 229.195312 87.300781 229.207031 C 87.292969 229.214844 87.285156 229.222656 87.273438 229.230469 C 87.253906 229.242188 87.238281 229.25 87.214844 229.261719 C 87.210938 229.261719 87.210938 229.269531 87.203125 229.269531 C 87.171875 229.289062 87.132812 229.300781 87.101562 229.324219 C 81.925781 232.570312 77.152344 236.605469 72.84375 241.328125 C 71.796875 239.101562 70.832031 236.886719 69.960938 234.6875 Z M 78.8125 252.519531 C 77.761719 250.773438 76.699219 248.890625 75.601562 246.820312 C 79.878906 241.820312 84.695312 237.601562 89.953125 234.277344 C 104.316406 229.230469 116.464844 233.671875 123.070312 239.542969 C 127.390625 243.386719 129.90625 248.113281 130.375 253.046875 C 129.632812 252.792969 128.839844 252.636719 128.015625 252.585938 C 123.890625 252.339844 120.167969 254.984375 118.757812 259.3125 C 118.027344 261.550781 117.996094 263.886719 118.589844 266.078125 C 117.21875 266.410156 115.964844 266.335938 114.921875 265.863281 C 114.875 265.835938 114.832031 265.8125 114.789062 265.789062 C 112.957031 264.847656 111.785156 262.660156 111.949219 260.414062 C 112.046875 259.113281 112.683594 256.761719 115.9375 255.730469 C 116.75 255.476562 117.40625 254.871094 117.730469 254.078125 C 118.042969 253.289062 117.996094 252.394531 117.585938 251.648438 C 114.847656 246.632812 109.226562 243.550781 102.152344 243.191406 C 94.910156 242.832031 85.355469 245.628906 78.8125 252.519531 Z M 81.988281 257.535156 C 87.226562 251.160156 95.542969 248.5625 101.867188 248.894531 C 105.542969 249.074219 108.613281 250.191406 110.691406 252.035156 C 108.09375 253.898438 106.496094 256.695312 106.253906 260.003906 C 106.21875 260.597656 106.222656 261.1875 106.265625 261.769531 C 98.320312 258.769531 90.824219 258.144531 83.566406 259.851562 C 83.03125 259.097656 82.507812 258.324219 81.988281 257.535156 Z M 88.28125 266.15625 C 100.414062 268.582031 113.003906 283.164062 123.4375 295.226562 C 124.335938 296.265625 125.222656 297.285156 126.101562 298.292969 C 111.550781 290.21875 98.710938 279.320312 88.28125 266.15625 Z M 140.398438 305.136719 C 136.679688 301.800781 132.34375 296.800781 127.75 291.488281 C 120.183594 282.742188 111.523438 272.742188 102.292969 266.421875 C 105.503906 267.460938 108.820312 268.953125 112.253906 270.902344 C 120.277344 275.4375 129.105469 282.460938 140.023438 293 C 148.769531 301.460938 156.675781 307.714844 164.230469 312.0625 C 156.101562 310.550781 148.140625 308.242188 140.398438 305.136719 Z M 193.582031 314.070312 L 193.582031 314.058594 C 192.734375 314.109375 191.820312 314.15625 190.835938 314.167969 L 190.816406 314.167969 C 176.101562 313.96875 162.09375 306.40625 143.984375 288.902344 C 138.761719 283.855469 133.980469 279.589844 129.519531 275.980469 C 130.476562 276.164062 131.457031 276.289062 132.464844 276.289062 C 133.136719 276.289062 133.820312 276.246094 134.511719 276.160156 C 137.039062 275.867188 139.382812 275.152344 141.507812 274.046875 C 142.886719 275.207031 144.675781 276.78125 146.816406 278.667969 C 154.726562 285.621094 167.945312 297.257812 181.210938 306.042969 L 181.789062 306.429688 C 185.972656 309.222656 190.050781 311.9375 194.132812 314.058594 C 193.96875 314.058594 193.785156 314.066406 193.582031 314.070312 Z M 208.425781 312.503906 C 201.035156 312.410156 193.578125 307.4375 184.949219 301.683594 L 184.375 301.289062 C 171.417969 292.71875 158.882812 281.683594 150.589844 274.386719 C 148.921875 272.914062 147.457031 271.632812 146.222656 270.570312 C 147.835938 268.929688 149.179688 266.976562 150.230469 264.75 C 160.234375 272.441406 176.648438 284.777344 191.375 294.53125 C 203.523438 302.582031 214.207031 307.34375 223.863281 308.921875 C 218.8125 310.433594 213.65625 311.644531 208.425781 312.503906 Z M 245.574219 300.125 C 245.5625 300.136719 245.554688 300.140625 245.539062 300.148438 C 245.515625 300.15625 245.492188 300.175781 245.472656 300.183594 C 245.367188 300.246094 245.257812 300.300781 245.15625 300.359375 C 244.644531 300.644531 244.128906 300.902344 243.617188 301.160156 C 243.453125 301.230469 243.265625 301.316406 243.234375 301.332031 C 230.214844 306.835938 214.734375 303.171875 194.53125 289.773438 C 179.132812 279.574219 161.828125 266.5 152.113281 259.003906 C 152.863281 255.214844 152.894531 251.050781 152.222656 246.777344 C 152.917969 246.238281 153.554688 245.601562 154.160156 244.925781 C 154.863281 245.667969 155.574219 246.398438 156.292969 247.09375 C 156.390625 247.203125 156.488281 247.304688 156.597656 247.394531 C 157.371094 248.167969 158.144531 248.9375 158.972656 249.707031 C 158.980469 249.71875 158.992188 249.726562 159.003906 249.738281 C 161.949219 252.484375 164.769531 254.882812 167.625 257.085938 C 167.703125 257.152344 167.761719 257.207031 167.855469 257.277344 C 195.601562 282.386719 216.171875 295.183594 232.582031 297.539062 C 234.582031 297.828125 236.414062 297.960938 238.097656 297.953125 C 246.609375 297.953125 251.234375 294.601562 253.664062 291.644531 C 252.28125 294.785156 249.746094 297.898438 245.574219 300.125 Z M 259.75 291.617188 C 260.621094 288.820312 260.871094 286.078125 260.65625 283.726562 C 260.144531 277.988281 257.097656 273.671875 252.613281 272.171875 C 252.582031 272.160156 252.546875 272.144531 252.515625 272.132812 C 252.515625 272.132812 252.507812 272.132812 252.507812 272.132812 C 250.824219 271.515625 248.851562 271.335938 246.792969 271.636719 C 245.722656 271.792969 244.835938 272.535156 244.492188 273.558594 C 244.15625 274.585938 244.421875 275.71875 245.183594 276.480469 C 245.929688 277.230469 245.871094 278.472656 245.472656 279.371094 C 245.167969 280.058594 244.300781 281.558594 241.597656 281.542969 C 239.054688 281.40625 237.09375 278.828125 236.925781 275.34375 C 236.789062 273.4375 237.296875 271.441406 238.3125 269.757812 C 238.753906 269.230469 239.128906 268.722656 239.414062 268.238281 L 240.007812 267.601562 C 245.230469 262.488281 254.90625 261.578125 262.496094 265.480469 C 262.578125 265.523438 262.660156 265.546875 262.742188 265.578125 C 266.671875 267.628906 271.660156 271.777344 274.074219 280.035156 C 269.5625 284.265625 264.785156 288.128906 259.75 291.617188 Z M 278.511719 275.542969 C 276.414062 270.242188 273.105469 265.855469 268.816406 262.710938 C 293.914062 242.226562 291.597656 214.761719 287.183594 201.308594 C 287.226562 201.328125 287.269531 201.34375 287.316406 201.363281 C 292.191406 203.59375 295.84375 209.609375 297.339844 217.871094 C 300.132812 233.328125 295.351562 256.53125 278.511719 275.542969 Z M 305.667969 233.285156 C 305.644531 233.355469 305.632812 233.433594 305.617188 233.507812 C 304.535156 236.304688 303.347656 239.050781 302.078125 241.738281 C 304.0625 232.625 304.242188 223.992188 302.945312 216.859375 C 301.671875 209.789062 299.042969 204.105469 295.339844 200.25 C 296.761719 199.46875 298.019531 198.335938 298.945312 196.902344 C 300.246094 194.910156 300.667969 192.722656 300.238281 190.65625 C 300.796875 190.867188 301.273438 191.167969 301.578125 191.375 C 306.238281 194.613281 313.101562 207.539062 305.667969 233.285156 Z M 304.828125 186.6875 C 301.253906 184.214844 297.214844 184.023438 294.273438 186.207031 C 293.621094 186.691406 293.203125 187.425781 293.132812 188.238281 C 293.058594 189.042969 293.332031 189.847656 293.882812 190.441406 C 294.847656 191.472656 294.945312 192.601562 294.164062 193.789062 C 293.289062 195.152344 291.382812 196.234375 289.539062 195.613281 C 286.359375 194.519531 284.394531 191.941406 284.148438 188.519531 C 283.851562 184.328125 286.3125 180.253906 290.484375 178.109375 C 291.644531 177.488281 292.933594 177.015625 294.4375 176.671875 C 299.71875 175.453125 309.417969 176.898438 314.140625 183.617188 C 314.191406 184.945312 314.226562 186.246094 314.226562 187.585938 C 314.226562 192.289062 313.945312 196.9375 313.4375 201.535156 C 311.828125 194.425781 308.675781 189.355469 304.828125 186.6875 Z M 151.839844 201.191406 C 152.363281 201.59375 152.972656 201.792969 153.585938 201.792969 C 154.4375 201.792969 155.28125 201.410156 155.839844 200.679688 C 156.804688 199.441406 156.574219 197.644531 155.328125 196.679688 C 154.8125 196.28125 154.507812 195.984375 154.449219 195.933594 C 153.347656 194.847656 151.558594 194.847656 150.445312 195.945312 C 149.332031 197.054688 149.324219 198.863281 150.425781 199.980469 C 150.425781 199.980469 150.925781 200.484375 151.839844 201.191406 " fill-opacity="1" fill-rule="nonzero"/></g><g fill="#ffffff" fill-opacity="1"><g transform="translate(83.853121, 85.86317)"><g><path d="M -0.875 -2.84375 L -5.859375 -18.484375 C -6.015625 -19.035156 -6.035156 -19.554688 -5.921875 -20.046875 C -5.804688 -20.546875 -5.535156 -20.984375 -5.109375 -21.359375 L -4.921875 -21.53125 C -4.484375 -21.914062 -4.015625 -22.128906 -3.515625 -22.171875 C -3.023438 -22.222656 -2.523438 -22.125 -2.015625 -21.875 L 12.921875 -15.0625 C 13.304688 -14.84375 13.550781 -14.675781 13.65625 -14.5625 C 14.03125 -14.144531 14.203125 -13.664062 14.171875 -13.125 C 14.148438 -12.582031 13.925781 -12.125 13.5 -11.75 C 13.132812 -11.425781 12.738281 -11.25 12.3125 -11.21875 C 11.894531 -11.195312 11.472656 -11.28125 11.046875 -11.46875 L 8.078125 -12.875 L 1.796875 -7.296875 L 2.890625 -4.078125 C 3.015625 -3.640625 3.023438 -3.226562 2.921875 -2.84375 C 2.828125 -2.457031 2.617188 -2.117188 2.296875 -1.828125 C 1.878906 -1.460938 1.40625 -1.296875 0.875 -1.328125 C 0.34375 -1.367188 -0.0976562 -1.59375 -0.453125 -2 C -0.546875 -2.113281 -0.625 -2.242188 -0.6875 -2.390625 C -0.757812 -2.535156 -0.820312 -2.6875 -0.875 -2.84375 Z M 0.5 -11.125 L 4.46875 -14.625 L -1.6875 -17.578125 Z M 0.5 -11.125 "/></g></g></g><g fill="#ffffff" fill-opacity="1"><g transform="translate(102.637944, 69.738308)"><g><path d="M -7.015625 -15.640625 C -7.328125 -16.128906 -7.414062 -16.65625 -7.28125 -17.21875 C -7.15625 -17.78125 -6.84375 -18.210938 -6.34375 -18.515625 L -0.71875 -22.03125 C 0.144531 -22.5625 1.007812 -22.953125 1.875 -23.203125 C 2.738281 -23.453125 3.582031 -23.523438 4.40625 -23.421875 C 5.238281 -23.316406 6.019531 -23.023438 6.75 -22.546875 C 7.488281 -22.078125 8.144531 -21.382812 8.71875 -20.46875 L 8.734375 -20.4375 C 9.546875 -19.132812 9.90625 -17.90625 9.8125 -16.75 C 9.71875 -15.59375 9.300781 -14.503906 8.5625 -13.484375 L 12.921875 -12.015625 C 13.222656 -11.910156 13.488281 -11.785156 13.71875 -11.640625 C 13.957031 -11.503906 14.164062 -11.296875 14.34375 -11.015625 C 14.644531 -10.523438 14.710938 -10.019531 14.546875 -9.5 C 14.390625 -8.988281 14.09375 -8.597656 13.65625 -8.328125 C 13.257812 -8.078125 12.867188 -7.953125 12.484375 -7.953125 C 12.097656 -7.953125 11.71875 -8.015625 11.34375 -8.140625 L 5.125 -10.390625 L 2.265625 -8.609375 L 4.46875 -5.0625 C 4.78125 -4.570312 4.867188 -4.046875 4.734375 -3.484375 C 4.609375 -2.929688 4.300781 -2.5 3.8125 -2.1875 C 3.3125 -1.882812 2.78125 -1.796875 2.21875 -1.921875 C 1.664062 -2.054688 1.234375 -2.367188 0.921875 -2.859375 Z M -2.578125 -16.40625 L 0.3125 -11.75 L 3.9375 -14.015625 C 4.8125 -14.554688 5.351562 -15.179688 5.5625 -15.890625 C 5.769531 -16.597656 5.660156 -17.300781 5.234375 -18 L 5.203125 -18.046875 C 4.710938 -18.828125 4.101562 -19.253906 3.375 -19.328125 C 2.65625 -19.398438 1.851562 -19.160156 0.96875 -18.609375 Z M -2.578125 -16.40625 "/></g></g></g><g fill="#ffffff" fill-opacity="1"><g transform="translate(122.918245, 57.552238)"><g><path d="M 1.3125 -2.828125 L -4.453125 -16.546875 C -4.679688 -17.085938 -4.6875 -17.625 -4.46875 -18.15625 C -4.257812 -18.6875 -3.882812 -19.066406 -3.34375 -19.296875 L 6.40625 -23.390625 C 6.894531 -23.597656 7.375 -23.601562 7.84375 -23.40625 C 8.320312 -23.207031 8.664062 -22.863281 8.875 -22.375 C 9.070312 -21.882812 9.070312 -21.40625 8.875 -20.9375 C 8.6875 -20.476562 8.347656 -20.144531 7.859375 -19.9375 L 0.03125 -16.640625 L 1.515625 -13.09375 L 8.203125 -15.90625 C 8.691406 -16.113281 9.175781 -16.117188 9.65625 -15.921875 C 10.144531 -15.722656 10.488281 -15.378906 10.6875 -14.890625 C 10.894531 -14.410156 10.894531 -13.9375 10.6875 -13.46875 C 10.488281 -13 10.144531 -12.660156 9.65625 -12.453125 L 2.96875 -9.640625 L 4.515625 -5.9375 L 12.484375 -9.28125 C 12.960938 -9.488281 13.441406 -9.492188 13.921875 -9.296875 C 14.398438 -9.109375 14.738281 -8.773438 14.9375 -8.296875 C 15.144531 -7.804688 15.148438 -7.328125 14.953125 -6.859375 C 14.753906 -6.390625 14.414062 -6.050781 13.9375 -5.84375 L 4.046875 -1.703125 C 3.503906 -1.472656 2.96875 -1.46875 2.4375 -1.6875 C 1.90625 -1.914062 1.53125 -2.296875 1.3125 -2.828125 Z M 1.3125 -2.828125 "/></g></g></g><g fill="#ffffff" fill-opacity="1"><g transform="translate(143.437047, 49.141326)"><g><path d="M 1.796875 -2.390625 L -1.703125 -17.171875 C -1.835938 -17.734375 -1.753906 -18.257812 -1.453125 -18.75 C -1.148438 -19.238281 -0.71875 -19.550781 -0.15625 -19.6875 L 0.28125 -19.78125 C 0.769531 -19.894531 1.203125 -19.878906 1.578125 -19.734375 C 1.953125 -19.597656 2.316406 -19.382812 2.671875 -19.09375 L 13.015625 -10.609375 L 10.75 -20.1875 C 10.613281 -20.757812 10.691406 -21.285156 10.984375 -21.765625 C 11.285156 -22.242188 11.710938 -22.550781 12.265625 -22.6875 C 12.835938 -22.820312 13.363281 -22.738281 13.84375 -22.4375 C 14.332031 -22.144531 14.644531 -21.710938 14.78125 -21.140625 L 18.28125 -6.375 C 18.40625 -5.8125 18.316406 -5.28125 18.015625 -4.78125 C 17.710938 -4.289062 17.28125 -3.976562 16.71875 -3.84375 L 16.59375 -3.8125 C 16.09375 -3.695312 15.65625 -3.710938 15.28125 -3.859375 C 14.90625 -4.003906 14.53125 -4.222656 14.15625 -4.515625 L 3.46875 -13.296875 L 5.828125 -3.34375 C 5.960938 -2.769531 5.878906 -2.242188 5.578125 -1.765625 C 5.273438 -1.285156 4.835938 -0.976562 4.265625 -0.84375 C 3.703125 -0.707031 3.179688 -0.785156 2.703125 -1.078125 C 2.234375 -1.378906 1.929688 -1.816406 1.796875 -2.390625 Z M 1.796875 -2.390625 "/></g></g></g><g fill="#ffffff" fill-opacity="1"><g transform="translate(168.195351, 43.650714)"><g><path d="M 1.078125 -2.78125 L 6.8125 -18.15625 C 7.019531 -18.695312 7.320312 -19.125 7.71875 -19.4375 C 8.113281 -19.757812 8.597656 -19.9375 9.171875 -19.96875 L 9.421875 -19.984375 C 10.003906 -20.015625 10.503906 -19.894531 10.921875 -19.625 C 11.335938 -19.363281 11.675781 -18.972656 11.9375 -18.453125 L 19.46875 -3.859375 C 19.632812 -3.460938 19.722656 -3.1875 19.734375 -3.03125 C 19.765625 -2.46875 19.601562 -1.976562 19.25 -1.5625 C 18.894531 -1.144531 18.4375 -0.921875 17.875 -0.890625 C 17.382812 -0.867188 16.96875 -0.976562 16.625 -1.21875 C 16.28125 -1.457031 15.992188 -1.789062 15.765625 -2.21875 L 14.3125 -5.140625 L 5.921875 -4.640625 L 4.78125 -1.421875 C 4.613281 -0.992188 4.375 -0.65625 4.0625 -0.40625 C 3.75 -0.164062 3.375 -0.0351562 2.9375 -0.015625 C 2.382812 0.015625 1.910156 -0.144531 1.515625 -0.5 C 1.117188 -0.863281 0.90625 -1.316406 0.875 -1.859375 C 0.863281 -2.003906 0.878906 -2.15625 0.921875 -2.3125 C 0.960938 -2.46875 1.015625 -2.625 1.078125 -2.78125 Z M 7.265625 -8.421875 L 12.546875 -8.734375 L 9.53125 -14.859375 Z M 7.265625 -8.421875 "/></g></g></g><g fill="#ffffff" fill-opacity="1"><g transform="translate(193.260906, 42.863288)"><g/></g></g><g fill="#ffffff" fill-opacity="1"><g transform="translate(205.745944, 43.737727)"><g><path d="M 4.0625 -4.859375 C 4.332031 -4.804688 4.550781 -4.722656 4.71875 -4.609375 C 4.894531 -4.492188 5.046875 -4.375 5.171875 -4.25 C 5.796875 -3.59375 6.46875 -3.035156 7.1875 -2.578125 C 7.914062 -2.128906 8.734375 -1.816406 9.640625 -1.640625 C 10.503906 -1.472656 11.203125 -1.5 11.734375 -1.71875 C 12.265625 -1.945312 12.582031 -2.335938 12.6875 -2.890625 L 12.703125 -2.953125 C 12.753906 -3.210938 12.75 -3.453125 12.6875 -3.671875 C 12.632812 -3.898438 12.484375 -4.132812 12.234375 -4.375 C 11.992188 -4.613281 11.644531 -4.863281 11.1875 -5.125 C 10.726562 -5.394531 10.128906 -5.703125 9.390625 -6.046875 C 8.484375 -6.472656 7.671875 -6.894531 6.953125 -7.3125 C 6.242188 -7.738281 5.660156 -8.210938 5.203125 -8.734375 C 4.753906 -9.265625 4.441406 -9.875 4.265625 -10.5625 C 4.097656 -11.25 4.101562 -12.050781 4.28125 -12.96875 L 4.296875 -13.03125 C 4.460938 -13.894531 4.769531 -14.632812 5.21875 -15.25 C 5.664062 -15.875 6.226562 -16.382812 6.90625 -16.78125 C 7.59375 -17.175781 8.359375 -17.425781 9.203125 -17.53125 C 10.054688 -17.644531 10.960938 -17.609375 11.921875 -17.421875 C 14.191406 -16.984375 16.070312 -16.050781 17.5625 -14.625 C 17.757812 -14.425781 17.925781 -14.171875 18.0625 -13.859375 C 18.195312 -13.554688 18.226562 -13.203125 18.15625 -12.796875 C 18.050781 -12.253906 17.773438 -11.835938 17.328125 -11.546875 C 16.890625 -11.253906 16.394531 -11.160156 15.84375 -11.265625 C 15.476562 -11.335938 15.15625 -11.503906 14.875 -11.765625 C 13.6875 -12.867188 12.457031 -13.546875 11.1875 -13.796875 C 10.382812 -13.953125 9.75 -13.910156 9.28125 -13.671875 C 8.820312 -13.429688 8.546875 -13.078125 8.453125 -12.609375 L 8.453125 -12.5625 C 8.390625 -12.226562 8.394531 -11.941406 8.46875 -11.703125 C 8.539062 -11.472656 8.710938 -11.242188 8.984375 -11.015625 C 9.265625 -10.796875 9.648438 -10.546875 10.140625 -10.265625 C 10.628906 -9.992188 11.25 -9.679688 12 -9.328125 C 12.914062 -8.890625 13.707031 -8.441406 14.375 -7.984375 C 15.050781 -7.535156 15.601562 -7.039062 16.03125 -6.5 C 16.457031 -5.96875 16.742188 -5.378906 16.890625 -4.734375 C 17.035156 -4.097656 17.03125 -3.367188 16.875 -2.546875 L 16.859375 -2.484375 C 16.679688 -1.554688 16.351562 -0.765625 15.875 -0.109375 C 15.394531 0.535156 14.804688 1.046875 14.109375 1.421875 C 13.410156 1.804688 12.617188 2.046875 11.734375 2.140625 C 10.847656 2.234375 9.894531 2.179688 8.875 1.984375 C 7.644531 1.742188 6.46875 1.320312 5.34375 0.71875 C 4.21875 0.113281 3.1875 -0.664062 2.25 -1.625 C 2.039062 -1.820312 1.894531 -2.070312 1.8125 -2.375 C 1.738281 -2.675781 1.734375 -2.988281 1.796875 -3.3125 C 1.898438 -3.851562 2.171875 -4.269531 2.609375 -4.5625 C 3.046875 -4.863281 3.53125 -4.960938 4.0625 -4.859375 Z M 4.0625 -4.859375 "/></g></g></g><g fill="#ffffff" fill-opacity="1"><g transform="translate(226.774976, 48.070291)"><g><path d="M 7.859375 -15.234375 C 8.046875 -15.785156 8.398438 -16.179688 8.921875 -16.421875 C 9.441406 -16.671875 9.976562 -16.695312 10.53125 -16.5 L 15.90625 -14.578125 C 16.976562 -14.191406 17.882812 -13.703125 18.625 -13.109375 C 19.363281 -12.515625 19.929688 -11.835938 20.328125 -11.078125 C 20.734375 -10.316406 20.957031 -9.5 21 -8.625 C 21.039062 -7.75 20.898438 -6.851562 20.578125 -5.9375 L 20.5625 -5.890625 C 20.1875 -4.835938 19.671875 -3.984375 19.015625 -3.328125 C 18.359375 -2.671875 17.601562 -2.195312 16.75 -1.90625 C 15.90625 -1.625 14.992188 -1.503906 14.015625 -1.546875 C 13.035156 -1.585938 12.039062 -1.785156 11.03125 -2.140625 L 8.03125 -3.21875 L 6.765625 0.34375 C 6.566406 0.894531 6.207031 1.289062 5.6875 1.53125 C 5.164062 1.78125 4.632812 1.804688 4.09375 1.609375 C 3.539062 1.410156 3.140625 1.050781 2.890625 0.53125 C 2.640625 0.0195312 2.613281 -0.507812 2.8125 -1.0625 Z M 9.28125 -6.75 L 12.421875 -5.625 C 13.410156 -5.28125 14.269531 -5.269531 15 -5.59375 C 15.738281 -5.914062 16.242188 -6.457031 16.515625 -7.21875 L 16.53125 -7.28125 C 16.851562 -8.175781 16.804688 -8.953125 16.390625 -9.609375 C 15.984375 -10.273438 15.285156 -10.785156 14.296875 -11.140625 L 11.234375 -12.234375 Z M 9.28125 -6.75 "/></g></g></g><g fill="#ffffff" fill-opacity="1"><g transform="translate(247.61118, 55.863114)"><g><path d="M 10.125 -14.046875 C 10.394531 -14.546875 10.804688 -14.878906 11.359375 -15.046875 C 11.910156 -15.222656 12.445312 -15.171875 12.96875 -14.890625 C 13.476562 -14.617188 13.8125 -14.203125 13.96875 -13.640625 C 14.132812 -13.085938 14.082031 -12.5625 13.8125 -12.0625 L 7.515625 -0.296875 L 14.375 3.375 C 14.832031 3.625 15.140625 4 15.296875 4.5 C 15.453125 5.007812 15.40625 5.492188 15.15625 5.953125 C 14.90625 6.421875 14.523438 6.726562 14.015625 6.875 C 13.515625 7.03125 13.035156 6.984375 12.578125 6.734375 L 3.875 2.078125 C 3.351562 1.796875 3.007812 1.375 2.84375 0.8125 C 2.6875 0.257812 2.742188 -0.265625 3.015625 -0.765625 Z M 10.125 -14.046875 "/></g></g></g><g fill="#ffffff" fill-opacity="1"><g transform="translate(266.037393, 66.290323)"><g><path d="M 11.890625 -12.625 C 12.210938 -13.09375 12.660156 -13.375 13.234375 -13.46875 C 13.804688 -13.570312 14.332031 -13.457031 14.8125 -13.125 C 15.289062 -12.78125 15.578125 -12.320312 15.671875 -11.75 C 15.765625 -11.1875 15.648438 -10.671875 15.328125 -10.203125 L 6.578125 2.265625 C 6.242188 2.734375 5.789062 3.015625 5.21875 3.109375 C 4.65625 3.210938 4.132812 3.09375 3.65625 2.75 C 3.175781 2.414062 2.882812 1.960938 2.78125 1.390625 C 2.6875 0.828125 2.804688 0.3125 3.140625 -0.15625 Z M 11.890625 -12.625 "/></g></g></g><g fill="#ffffff" fill-opacity="1"><g transform="translate(277.052114, 74.026876)"><g><path d="M 12.0625 -12.21875 C 12.414062 -12.601562 12.863281 -12.804688 13.40625 -12.828125 C 13.945312 -12.859375 14.410156 -12.695312 14.796875 -12.34375 L 23.90625 -4.125 C 24.300781 -3.757812 24.507812 -3.304688 24.53125 -2.765625 C 24.5625 -2.234375 24.398438 -1.773438 24.046875 -1.390625 C 23.691406 -0.992188 23.242188 -0.78125 22.703125 -0.75 C 22.171875 -0.726562 21.707031 -0.898438 21.3125 -1.265625 L 18.3125 -3.96875 L 9.40625 5.890625 C 9.019531 6.328125 8.535156 6.554688 7.953125 6.578125 C 7.378906 6.597656 6.875 6.414062 6.4375 6.03125 C 6.007812 5.644531 5.78125 5.164062 5.75 4.59375 C 5.726562 4.019531 5.910156 3.515625 6.296875 3.078125 L 15.203125 -6.78125 L 12.203125 -9.484375 C 11.816406 -9.835938 11.609375 -10.28125 11.578125 -10.8125 C 11.546875 -11.351562 11.707031 -11.820312 12.0625 -12.21875 Z M 12.0625 -12.21875 "/></g></g></g><g fill="#ffffff" fill-opacity="1"><g transform="translate(63.310247, 291.590711)"><g><path d="M 12.03125 -8.6875 C 12.394531 -9.03125 12.828125 -9.195312 13.328125 -9.1875 C 13.828125 -9.175781 14.25 -8.988281 14.59375 -8.625 L 17.796875 -5.25 C 18.691406 -4.3125 19.359375 -3.304688 19.796875 -2.234375 C 20.234375 -1.171875 20.453125 -0.101562 20.453125 0.96875 C 20.453125 2.050781 20.234375 3.085938 19.796875 4.078125 C 19.367188 5.066406 18.734375 5.960938 17.890625 6.765625 L 17.859375 6.796875 C 17.003906 7.597656 16.066406 8.191406 15.046875 8.578125 C 14.023438 8.972656 12.976562 9.140625 11.90625 9.078125 C 10.832031 9.023438 9.769531 8.753906 8.71875 8.265625 C 7.675781 7.773438 6.707031 7.0625 5.8125 6.125 L 2.609375 2.75 C 2.265625 2.382812 2.097656 1.953125 2.109375 1.453125 C 2.117188 0.953125 2.304688 0.53125 2.671875 0.1875 Z M 8.1875 3.859375 C 8.695312 4.390625 9.25 4.796875 9.84375 5.078125 C 10.445312 5.367188 11.054688 5.519531 11.671875 5.53125 C 12.285156 5.539062 12.894531 5.421875 13.5 5.171875 C 14.101562 4.929688 14.671875 4.566406 15.203125 4.078125 L 15.234375 4.046875 C 15.765625 3.535156 16.164062 2.976562 16.4375 2.375 C 16.71875 1.78125 16.867188 1.175781 16.890625 0.5625 C 16.910156 -0.0390625 16.796875 -0.648438 16.546875 -1.265625 C 16.304688 -1.890625 15.929688 -2.46875 15.421875 -3 L 13.484375 -5.046875 L 6.25 1.8125 Z M 8.1875 3.859375 "/></g></g></g><g fill="#ffffff" fill-opacity="1"><g transform="translate(79.296282, 307.700427)"><g><path d="M 11.265625 -9.9375 C 11.585938 -10.3125 12 -10.519531 12.5 -10.5625 C 13 -10.601562 13.441406 -10.460938 13.828125 -10.140625 C 14.203125 -9.816406 14.410156 -9.398438 14.453125 -8.890625 C 14.492188 -8.390625 14.351562 -7.953125 14.03125 -7.578125 L 5.484375 2.46875 C 5.160156 2.851562 4.75 3.0625 4.25 3.09375 C 3.75 3.132812 3.3125 2.992188 2.9375 2.671875 C 2.550781 2.347656 2.335938 1.9375 2.296875 1.4375 C 2.253906 0.9375 2.394531 0.492188 2.71875 0.109375 Z M 11.265625 -9.9375 "/></g></g></g><g fill="#ffffff" fill-opacity="1"><g transform="translate(88.544071, 315.578437)"><g><path d="M 11.59375 -12.25 C 11.988281 -11.976562 12.242188 -11.65625 12.359375 -11.28125 C 12.484375 -10.914062 12.5 -10.546875 12.40625 -10.171875 L 9.765625 1 L 19.328125 -5.546875 C 19.609375 -5.734375 19.9375 -5.835938 20.3125 -5.859375 C 20.6875 -5.878906 21.054688 -5.769531 21.421875 -5.53125 C 21.835938 -5.238281 22.097656 -4.859375 22.203125 -4.390625 C 22.304688 -3.929688 22.210938 -3.5 21.921875 -3.09375 C 21.847656 -2.96875 21.753906 -2.859375 21.640625 -2.765625 C 21.523438 -2.671875 21.414062 -2.585938 21.3125 -2.515625 L 9.53125 5.09375 C 8.65625 5.664062 7.816406 5.675781 7.015625 5.125 L 6.8125 5 C 6.019531 4.445312 5.734375 3.660156 5.953125 2.640625 L 8.78125 -10.96875 C 8.789062 -11.125 8.820312 -11.269531 8.875 -11.40625 C 8.9375 -11.539062 9.015625 -11.675781 9.109375 -11.8125 C 9.390625 -12.226562 9.769531 -12.476562 10.25 -12.5625 C 10.738281 -12.644531 11.1875 -12.539062 11.59375 -12.25 Z M 11.59375 -12.25 "/></g></g></g><g fill="#ffffff" fill-opacity="1"><g transform="translate(106.402303, 327.272094)"><g><path d="M 8.984375 -12.03125 C 9.222656 -12.46875 9.582031 -12.757812 10.0625 -12.90625 C 10.539062 -13.050781 11 -13.003906 11.4375 -12.765625 C 11.875 -12.523438 12.164062 -12.160156 12.3125 -11.671875 C 12.457031 -11.191406 12.410156 -10.734375 12.171875 -10.296875 L 5.875 1.296875 C 5.632812 1.734375 5.273438 2.019531 4.796875 2.15625 C 4.316406 2.300781 3.859375 2.253906 3.421875 2.015625 C 2.984375 1.773438 2.691406 1.414062 2.546875 0.9375 C 2.398438 0.457031 2.445312 0 2.6875 -0.4375 Z M 8.984375 -12.03125 "/></g></g></g><g fill="#ffffff" fill-opacity="1"><g transform="translate(117.078833, 333.133716)"><g><path d="M 7.421875 -12.859375 C 7.617188 -13.328125 7.945312 -13.65625 8.40625 -13.84375 C 8.863281 -14.03125 9.328125 -14.03125 9.796875 -13.84375 L 14.078125 -12.078125 C 15.285156 -11.578125 16.304688 -10.929688 17.140625 -10.140625 C 17.984375 -9.347656 18.625 -8.460938 19.0625 -7.484375 C 19.5 -6.503906 19.722656 -5.472656 19.734375 -4.390625 C 19.742188 -3.304688 19.523438 -2.222656 19.078125 -1.140625 L 19.0625 -1.09375 C 18.625 -0.0195312 18.015625 0.898438 17.234375 1.671875 C 16.460938 2.441406 15.578125 3.019531 14.578125 3.40625 C 13.578125 3.789062 12.5 3.976562 11.34375 3.96875 C 10.1875 3.957031 9.003906 3.703125 7.796875 3.203125 L 3.515625 1.4375 C 3.046875 1.25 2.710938 0.921875 2.515625 0.453125 C 2.328125 -0.00390625 2.328125 -0.460938 2.515625 -0.921875 Z M 9.046875 0.171875 C 9.734375 0.453125 10.40625 0.597656 11.0625 0.609375 C 11.71875 0.617188 12.328125 0.503906 12.890625 0.265625 C 13.460938 0.0351562 13.976562 -0.3125 14.4375 -0.78125 C 14.894531 -1.257812 15.257812 -1.828125 15.53125 -2.484375 L 15.546875 -2.53125 C 15.828125 -3.21875 15.972656 -3.890625 15.984375 -4.546875 C 15.992188 -5.203125 15.878906 -5.816406 15.640625 -6.390625 C 15.410156 -6.960938 15.054688 -7.476562 14.578125 -7.9375 C 14.109375 -8.394531 13.53125 -8.765625 12.84375 -9.046875 L 10.25 -10.109375 L 6.453125 -0.890625 Z M 9.046875 0.171875 "/></g></g></g><g fill="#ffffff" fill-opacity="1"><g transform="translate(138.369081, 341.479466)"><g><path d="M 2.390625 -1.25 L 5.671875 -13.734375 C 5.796875 -14.210938 6.070312 -14.578125 6.5 -14.828125 C 6.9375 -15.078125 7.394531 -15.140625 7.875 -15.015625 L 16.75 -12.6875 C 17.1875 -12.570312 17.515625 -12.320312 17.734375 -11.9375 C 17.960938 -11.550781 18.019531 -11.140625 17.90625 -10.703125 C 17.789062 -10.253906 17.539062 -9.921875 17.15625 -9.703125 C 16.78125 -9.492188 16.375 -9.445312 15.9375 -9.5625 L 8.796875 -11.4375 L 7.9375 -8.203125 L 14.046875 -6.59375 C 14.484375 -6.476562 14.8125 -6.226562 15.03125 -5.84375 C 15.257812 -5.457031 15.3125 -5.039062 15.1875 -4.59375 C 15.070312 -4.15625 14.820312 -3.828125 14.4375 -3.609375 C 14.0625 -3.390625 13.65625 -3.335938 13.21875 -3.453125 L 7.109375 -5.0625 L 6.234375 -1.703125 L 13.484375 0.203125 C 13.921875 0.316406 14.25 0.566406 14.46875 0.953125 C 14.695312 1.335938 14.753906 1.75 14.640625 2.1875 C 14.523438 2.632812 14.273438 2.960938 13.890625 3.171875 C 13.503906 3.390625 13.09375 3.441406 12.65625 3.328125 L 3.671875 0.96875 C 3.191406 0.84375 2.820312 0.5625 2.5625 0.125 C 2.3125 -0.3125 2.253906 -0.769531 2.390625 -1.25 Z M 2.390625 -1.25 "/></g></g></g><g fill="#ffffff" fill-opacity="1"><g transform="translate(157.78948, 346.169516)"><g/></g></g><g fill="#ffffff" fill-opacity="1"><g transform="translate(168.893859, 347.984396)"><g><path d="M 2.109375 -1.6875 L 2.9375 -14.5625 C 2.96875 -15.0625 3.171875 -15.472656 3.546875 -15.796875 C 3.929688 -16.128906 4.367188 -16.28125 4.859375 -16.25 L 14.015625 -15.65625 C 14.472656 -15.625 14.847656 -15.441406 15.140625 -15.109375 C 15.429688 -14.773438 15.5625 -14.378906 15.53125 -13.921875 C 15.5 -13.460938 15.316406 -13.085938 14.984375 -12.796875 C 14.648438 -12.515625 14.253906 -12.390625 13.796875 -12.421875 L 6.4375 -12.90625 L 6.21875 -9.578125 L 12.515625 -9.171875 C 12.972656 -9.140625 13.347656 -8.953125 13.640625 -8.609375 C 13.929688 -8.273438 14.0625 -7.878906 14.03125 -7.421875 C 14.007812 -6.960938 13.832031 -6.585938 13.5 -6.296875 C 13.164062 -6.015625 12.769531 -5.890625 12.3125 -5.921875 L 6.015625 -6.328125 L 5.78125 -2.875 L 13.265625 -2.390625 C 13.710938 -2.359375 14.085938 -2.175781 14.390625 -1.84375 C 14.691406 -1.507812 14.828125 -1.113281 14.796875 -0.65625 C 14.765625 -0.195312 14.578125 0.171875 14.234375 0.453125 C 13.898438 0.742188 13.507812 0.875 13.0625 0.84375 L 3.78125 0.25 C 3.289062 0.21875 2.878906 0.015625 2.546875 -0.359375 C 2.210938 -0.742188 2.066406 -1.1875 2.109375 -1.6875 Z M 2.109375 -1.6875 "/></g></g></g><g fill="#ffffff" fill-opacity="1"><g transform="translate(189.056859, 349.047152)"><g><path d="M 1 -1.59375 C 0.976562 -1.863281 1.007812 -2.109375 1.09375 -2.328125 C 1.175781 -2.554688 1.289062 -2.785156 1.4375 -3.015625 L 5.546875 -8.765625 L 1.046875 -13.625 C 0.890625 -13.789062 0.75 -13.984375 0.625 -14.203125 C 0.5 -14.421875 0.429688 -14.664062 0.421875 -14.9375 C 0.390625 -15.4375 0.53125 -15.867188 0.84375 -16.234375 C 1.15625 -16.597656 1.570312 -16.800781 2.09375 -16.84375 C 2.488281 -16.863281 2.8125 -16.804688 3.0625 -16.671875 C 3.320312 -16.546875 3.570312 -16.335938 3.8125 -16.046875 L 7.734375 -11.484375 L 11.015625 -16.40625 C 11.242188 -16.738281 11.484375 -17 11.734375 -17.1875 C 11.984375 -17.375 12.3125 -17.476562 12.71875 -17.5 C 13.125 -17.53125 13.507812 -17.40625 13.875 -17.125 C 14.25 -16.851562 14.453125 -16.457031 14.484375 -15.9375 C 14.503906 -15.664062 14.472656 -15.414062 14.390625 -15.1875 C 14.304688 -14.96875 14.1875 -14.742188 14.03125 -14.515625 L 10.15625 -9.109375 L 14.921875 -3.9375 C 15.078125 -3.769531 15.21875 -3.578125 15.34375 -3.359375 C 15.46875 -3.148438 15.535156 -2.910156 15.546875 -2.640625 C 15.578125 -2.128906 15.4375 -1.691406 15.125 -1.328125 C 14.8125 -0.960938 14.394531 -0.757812 13.875 -0.71875 C 13.476562 -0.695312 13.148438 -0.753906 12.890625 -0.890625 C 12.628906 -1.023438 12.378906 -1.234375 12.140625 -1.515625 L 7.96875 -6.328125 L 4.453125 -1.125 C 4.222656 -0.800781 3.984375 -0.539062 3.734375 -0.34375 C 3.492188 -0.15625 3.164062 -0.0507812 2.75 -0.03125 C 2.34375 0 1.957031 -0.117188 1.59375 -0.390625 C 1.226562 -0.671875 1.03125 -1.070312 1 -1.59375 Z M 1 -1.59375 "/></g></g></g><g fill="#ffffff" fill-opacity="1"><g transform="translate(210.126088, 347.420163)"><g><path d="M -0.828125 -14.828125 C -0.921875 -15.316406 -0.820312 -15.769531 -0.53125 -16.1875 C -0.25 -16.601562 0.132812 -16.859375 0.625 -16.953125 L 5.46875 -17.875 C 6.445312 -18.0625 7.34375 -18.09375 8.15625 -17.96875 C 8.976562 -17.851562 9.703125 -17.597656 10.328125 -17.203125 C 10.960938 -16.816406 11.488281 -16.304688 11.90625 -15.671875 C 12.320312 -15.035156 12.613281 -14.300781 12.78125 -13.46875 L 12.78125 -13.421875 C 12.957031 -12.472656 12.941406 -11.609375 12.734375 -10.828125 C 12.535156 -10.054688 12.179688 -9.367188 11.671875 -8.765625 C 11.171875 -8.171875 10.546875 -7.679688 9.796875 -7.296875 C 9.046875 -6.910156 8.210938 -6.628906 7.296875 -6.453125 L 4.59375 -5.9375 L 5.21875 -2.703125 C 5.3125 -2.210938 5.21875 -1.757812 4.9375 -1.34375 C 4.65625 -0.925781 4.265625 -0.671875 3.765625 -0.578125 C 3.273438 -0.484375 2.820312 -0.578125 2.40625 -0.859375 C 1.988281 -1.140625 1.734375 -1.523438 1.640625 -2.015625 Z M 3.984375 -9.125 L 6.796875 -9.671875 C 7.703125 -9.835938 8.359375 -10.203125 8.765625 -10.765625 C 9.171875 -11.328125 9.304688 -11.957031 9.171875 -12.65625 L 9.15625 -12.703125 C 9 -13.503906 8.617188 -14.0625 8.015625 -14.375 C 7.421875 -14.695312 6.675781 -14.773438 5.78125 -14.609375 L 3.03125 -14.078125 Z M 3.984375 -9.125 "/></g></g></g><g fill="#ffffff" fill-opacity="1"><g transform="translate(229.834654, 343.367407)"><g><path d="M 1.328125 -2.328125 L -2.65625 -14.609375 C -2.8125 -15.085938 -2.773438 -15.546875 -2.546875 -15.984375 C -2.328125 -16.429688 -1.976562 -16.734375 -1.5 -16.890625 L 7.21875 -19.71875 C 7.65625 -19.863281 8.070312 -19.832031 8.46875 -19.625 C 8.863281 -19.425781 9.132812 -19.109375 9.28125 -18.671875 C 9.414062 -18.242188 9.378906 -17.832031 9.171875 -17.4375 C 8.972656 -17.050781 8.65625 -16.785156 8.21875 -16.640625 L 1.21875 -14.359375 L 2.25 -11.1875 L 8.25 -13.140625 C 8.6875 -13.285156 9.101562 -13.253906 9.5 -13.046875 C 9.894531 -12.835938 10.164062 -12.515625 10.3125 -12.078125 C 10.445312 -11.640625 10.414062 -11.226562 10.21875 -10.84375 C 10.019531 -10.457031 9.703125 -10.191406 9.265625 -10.046875 L 3.265625 -8.09375 L 4.328125 -4.796875 L 11.453125 -7.125 C 11.878906 -7.257812 12.289062 -7.226562 12.6875 -7.03125 C 13.09375 -6.832031 13.363281 -6.515625 13.5 -6.078125 C 13.644531 -5.640625 13.613281 -5.222656 13.40625 -4.828125 C 13.195312 -4.441406 12.878906 -4.179688 12.453125 -4.046875 L 3.609375 -1.171875 C 3.128906 -1.015625 2.664062 -1.050781 2.21875 -1.28125 C 1.78125 -1.507812 1.484375 -1.859375 1.328125 -2.328125 Z M 1.328125 -2.328125 "/></g></g></g><g fill="#ffffff" fill-opacity="1"><g transform="translate(249.019817, 336.933338)"><g><path d="M 1.078125 -2.359375 L -4.609375 -14.21875 C -4.828125 -14.664062 -4.851562 -15.125 -4.6875 -15.59375 C -4.519531 -16.0625 -4.210938 -16.40625 -3.765625 -16.625 L -3.40625 -16.796875 C -3.007812 -16.984375 -2.644531 -17.050781 -2.3125 -17 C -1.976562 -16.945312 -1.625 -16.832031 -1.25 -16.65625 L 9.0625 -11.390625 L 5.375 -19.078125 C 5.15625 -19.535156 5.125 -19.992188 5.28125 -20.453125 C 5.445312 -20.910156 5.757812 -21.25 6.21875 -21.46875 C 6.675781 -21.6875 7.128906 -21.710938 7.578125 -21.546875 C 8.035156 -21.390625 8.375 -21.082031 8.59375 -20.625 L 14.28125 -8.75 C 14.5 -8.300781 14.523438 -7.84375 14.359375 -7.375 C 14.203125 -6.90625 13.894531 -6.5625 13.4375 -6.34375 L 13.328125 -6.296875 C 12.929688 -6.109375 12.5625 -6.039062 12.21875 -6.09375 C 11.882812 -6.144531 11.535156 -6.257812 11.171875 -6.4375 L 0.484375 -11.890625 L 4.3125 -3.90625 C 4.53125 -3.4375 4.554688 -2.972656 4.390625 -2.515625 C 4.222656 -2.054688 3.914062 -1.722656 3.46875 -1.515625 C 3.019531 -1.296875 2.5625 -1.265625 2.09375 -1.421875 C 1.632812 -1.578125 1.296875 -1.890625 1.078125 -2.359375 Z M 1.078125 -2.359375 "/></g></g></g><g fill="#ffffff" fill-opacity="1"><g transform="translate(269.620001, 326.603756)"><g><path d="M -0.390625 -5.46875 C -0.191406 -5.601562 -0.00390625 -5.679688 0.171875 -5.703125 C 0.347656 -5.734375 0.507812 -5.753906 0.65625 -5.765625 C 1.445312 -5.734375 2.203125 -5.796875 2.921875 -5.953125 C 3.648438 -6.109375 4.347656 -6.40625 5.015625 -6.84375 C 5.660156 -7.257812 6.082031 -7.691406 6.28125 -8.140625 C 6.476562 -8.585938 6.441406 -9.019531 6.171875 -9.4375 L 6.15625 -9.46875 C 6.019531 -9.675781 5.863281 -9.832031 5.6875 -9.9375 C 5.507812 -10.039062 5.273438 -10.09375 4.984375 -10.09375 C 4.691406 -10.101562 4.320312 -10.050781 3.875 -9.9375 C 3.425781 -9.820312 2.867188 -9.648438 2.203125 -9.421875 C 1.378906 -9.140625 0.617188 -8.914062 -0.078125 -8.75 C -0.773438 -8.582031 -1.421875 -8.523438 -2.015625 -8.578125 C -2.617188 -8.640625 -3.179688 -8.832031 -3.703125 -9.15625 C -4.222656 -9.476562 -4.703125 -9.976562 -5.140625 -10.65625 L -5.171875 -10.6875 C -5.585938 -11.332031 -5.84375 -11.984375 -5.9375 -12.640625 C -6.03125 -13.304688 -5.984375 -13.960938 -5.796875 -14.609375 C -5.609375 -15.253906 -5.28125 -15.867188 -4.8125 -16.453125 C -4.351562 -17.046875 -3.769531 -17.570312 -3.0625 -18.03125 C -1.382812 -19.125 0.34375 -19.675781 2.125 -19.6875 C 2.375 -19.695312 2.628906 -19.644531 2.890625 -19.53125 C 3.160156 -19.414062 3.394531 -19.210938 3.59375 -18.921875 C 3.851562 -18.515625 3.929688 -18.082031 3.828125 -17.625 C 3.734375 -17.175781 3.488281 -16.820312 3.09375 -16.5625 C 2.820312 -16.382812 2.507812 -16.289062 2.15625 -16.28125 C 0.769531 -16.257812 -0.390625 -15.941406 -1.328125 -15.328125 C -1.921875 -14.929688 -2.289062 -14.519531 -2.4375 -14.09375 C -2.582031 -13.664062 -2.546875 -13.285156 -2.328125 -12.953125 L -2.3125 -12.90625 C -2.144531 -12.664062 -1.96875 -12.492188 -1.78125 -12.390625 C -1.601562 -12.296875 -1.359375 -12.253906 -1.046875 -12.265625 C -0.742188 -12.285156 -0.359375 -12.363281 0.109375 -12.5 C 0.585938 -12.632812 1.171875 -12.816406 1.859375 -13.046875 C 2.679688 -13.304688 3.441406 -13.5 4.140625 -13.625 C 4.835938 -13.75 5.476562 -13.773438 6.0625 -13.703125 C 6.65625 -13.628906 7.1875 -13.4375 7.65625 -13.125 C 8.132812 -12.820312 8.570312 -12.367188 8.96875 -11.765625 L 9 -11.71875 C 9.445312 -11.03125 9.71875 -10.335938 9.8125 -9.640625 C 9.914062 -8.941406 9.859375 -8.265625 9.640625 -7.609375 C 9.429688 -6.953125 9.078125 -6.320312 8.578125 -5.71875 C 8.085938 -5.125 7.460938 -4.582031 6.703125 -4.09375 C 5.796875 -3.5 4.8125 -3.050781 3.75 -2.75 C 2.695312 -2.457031 1.59375 -2.332031 0.4375 -2.375 C 0.1875 -2.375 -0.0546875 -2.441406 -0.296875 -2.578125 C -0.535156 -2.710938 -0.734375 -2.898438 -0.890625 -3.140625 C -1.148438 -3.535156 -1.226562 -3.957031 -1.125 -4.40625 C -1.03125 -4.851562 -0.785156 -5.207031 -0.390625 -5.46875 Z M -0.390625 -5.46875 "/></g></g></g><g fill="#ffffff" fill-opacity="1"><g transform="translate(285.772664, 315.777744)"><g><path d="M 0.34375 -2.671875 L -7.96875 -12.53125 C -8.289062 -12.914062 -8.429688 -13.359375 -8.390625 -13.859375 C -8.347656 -14.359375 -8.132812 -14.769531 -7.75 -15.09375 L -0.734375 -21 C -0.390625 -21.289062 0 -21.414062 0.4375 -21.375 C 0.882812 -21.34375 1.253906 -21.148438 1.546875 -20.796875 C 1.847656 -20.453125 1.976562 -20.0625 1.9375 -19.625 C 1.894531 -19.1875 1.703125 -18.820312 1.359375 -18.53125 L -4.28125 -13.78125 L -2.140625 -11.21875 L 2.6875 -15.28125 C 3.03125 -15.570312 3.425781 -15.695312 3.875 -15.65625 C 4.320312 -15.613281 4.691406 -15.421875 4.984375 -15.078125 C 5.285156 -14.722656 5.414062 -14.328125 5.375 -13.890625 C 5.332031 -13.453125 5.140625 -13.085938 4.796875 -12.796875 L -0.03125 -8.734375 L 2.203125 -6.078125 L 7.9375 -10.90625 C 8.28125 -11.195312 8.671875 -11.320312 9.109375 -11.28125 C 9.546875 -11.25 9.914062 -11.0625 10.21875 -10.71875 C 10.507812 -10.363281 10.632812 -9.96875 10.59375 -9.53125 C 10.550781 -9.09375 10.359375 -8.726562 10.015625 -8.4375 L 2.90625 -2.453125 C 2.519531 -2.128906 2.078125 -1.988281 1.578125 -2.03125 C 1.078125 -2.070312 0.664062 -2.285156 0.34375 -2.671875 Z M 0.34375 -2.671875 "/></g></g></g><g fill="#ffffff" fill-opacity="1"><g transform="translate(300.995467, 302.568195)"><g><path d="M -1.703125 -5.21875 C -1.535156 -5.394531 -1.367188 -5.515625 -1.203125 -5.578125 C -1.046875 -5.648438 -0.898438 -5.710938 -0.765625 -5.765625 C 0.015625 -5.910156 0.734375 -6.144531 1.390625 -6.46875 C 2.054688 -6.800781 2.664062 -7.257812 3.21875 -7.84375 C 3.726562 -8.40625 4.023438 -8.925781 4.109375 -9.40625 C 4.203125 -9.894531 4.070312 -10.304688 3.71875 -10.640625 L 3.671875 -10.671875 C 3.492188 -10.835938 3.304688 -10.953125 3.109375 -11.015625 C 2.921875 -11.078125 2.679688 -11.070312 2.390625 -11 C 2.097656 -10.9375 1.753906 -10.796875 1.359375 -10.578125 C 0.960938 -10.367188 0.460938 -10.066406 -0.140625 -9.671875 C -0.859375 -9.203125 -1.535156 -8.800781 -2.171875 -8.46875 C -2.816406 -8.132812 -3.4375 -7.925781 -4.03125 -7.84375 C -4.625 -7.757812 -5.210938 -7.804688 -5.796875 -7.984375 C -6.378906 -8.171875 -6.96875 -8.539062 -7.5625 -9.09375 L -7.59375 -9.125 C -8.15625 -9.644531 -8.5625 -10.210938 -8.8125 -10.828125 C -9.0625 -11.453125 -9.175781 -12.097656 -9.15625 -12.765625 C -9.132812 -13.441406 -8.96875 -14.125 -8.65625 -14.8125 C -8.34375 -15.5 -7.898438 -16.148438 -7.328125 -16.765625 C -5.972656 -18.234375 -4.425781 -19.179688 -2.6875 -19.609375 C -2.445312 -19.679688 -2.1875 -19.691406 -1.90625 -19.640625 C -1.625 -19.597656 -1.351562 -19.457031 -1.09375 -19.21875 C -0.738281 -18.894531 -0.554688 -18.503906 -0.546875 -18.046875 C -0.535156 -17.585938 -0.691406 -17.179688 -1.015625 -16.828125 C -1.234375 -16.585938 -1.503906 -16.421875 -1.828125 -16.328125 C -3.179688 -15.960938 -4.238281 -15.367188 -5 -14.546875 C -5.488281 -14.023438 -5.75 -13.539062 -5.78125 -13.09375 C -5.820312 -12.644531 -5.695312 -12.28125 -5.40625 -12 L -5.359375 -11.96875 C -5.148438 -11.769531 -4.941406 -11.644531 -4.734375 -11.59375 C -4.523438 -11.539062 -4.269531 -11.5625 -3.96875 -11.65625 C -3.675781 -11.75 -3.320312 -11.914062 -2.90625 -12.15625 C -2.488281 -12.40625 -1.972656 -12.71875 -1.359375 -13.09375 C -0.609375 -13.5625 0.0859375 -13.9375 0.734375 -14.21875 C 1.378906 -14.507812 1.992188 -14.6875 2.578125 -14.75 C 3.171875 -14.820312 3.734375 -14.769531 4.265625 -14.59375 C 4.796875 -14.414062 5.328125 -14.078125 5.859375 -13.578125 L 5.90625 -13.546875 C 6.507812 -12.984375 6.941406 -12.375 7.203125 -11.71875 C 7.460938 -11.070312 7.566406 -10.40625 7.515625 -9.71875 C 7.472656 -9.03125 7.285156 -8.335938 6.953125 -7.640625 C 6.617188 -6.941406 6.140625 -6.265625 5.515625 -5.609375 C 4.785156 -4.804688 3.941406 -4.128906 2.984375 -3.578125 C 2.023438 -3.035156 0.976562 -2.644531 -0.15625 -2.40625 C -0.394531 -2.34375 -0.644531 -2.347656 -0.90625 -2.421875 C -1.175781 -2.492188 -1.421875 -2.628906 -1.640625 -2.828125 C -1.984375 -3.148438 -2.160156 -3.539062 -2.171875 -4 C -2.179688 -4.46875 -2.023438 -4.875 -1.703125 -5.21875 Z M -1.703125 -5.21875 "/></g></g></g></svg>
